<svg xmlns="http://www.w3.org/2000/svg" style="display:none;">

<symbol id="icon-accessibility" viewBox="0 0 32 32"><title>accessibility</title><path d="M27.91 22.49l-3.09 2.13-4-8.33-8 .13-.47-3.13h6.95V12h-7.17l-.61-4.2a3 3 0 1 0-1.26 0l1.45 9.88 8.29-.12 4.31 8.92 4.29-3zM9.2 4.88a1.67 1.67 0 1 1 1.67 1.67A1.68 1.68 0 0 1 9.2 4.88zm11.14 16.93l.89 1.85a9.12 9.12 0 1 1-11.64-11.3l.19 1.26a7.87 7.87 0 1 0 10.56 8.2z"/></symbol>

<symbol id="icon-alarm" viewBox="0 0 32 32"><title>alarm</title><path d="M27.1 17.52a24.83 24.83 0 0 1-2.23-2.89 11.88 11.88 0 0 1-1.93-6.49 6.94 6.94 0 1 0-13.88 0 11.88 11.88 0 0 1-1.93 6.49 24.85 24.85 0 0 1-2.23 2.89A8.31 8.31 0 0 0 2.82 23v3.83a.7.7 0 0 0 .7.7h8.7a3.82 3.82 0 0 0 7.55 0h8.7a.7.7 0 0 0 .7-.7V23a8.31 8.31 0 0 0-2.07-5.48zM6 18.45a26.22 26.22 0 0 0 2.31-3.05 13.29 13.29 0 0 0 2.15-7.26 5.53 5.53 0 1 1 11.06 0 13.29 13.29 0 0 0 2.15 7.26A26.2 26.2 0 0 0 26 18.45a6.9 6.9 0 0 1 1.69 3.89H4.27A6.9 6.9 0 0 1 6 18.45zm10 10.94a2.42 2.42 0 0 1-2.34-1.84h4.68A2.42 2.42 0 0 1 16 29.39zM4.23 26.14v-2.38h23.54v2.39z"/></symbol>

<symbol id="icon-angle-down" viewBox="0 0 32 32"><title>angle down</title><path d="M16 20.6l8.14-8.14-1.06-1.06L16 18.48 8.92 11.4l-1.06 1.06L16 20.6z"/></symbol>

<symbol id="icon-angle-up" viewBox="0 0 32 32"><title>angle up</title><path d="M16 11.4l8.14 8.14-1.06 1.06L16 13.52 8.92 20.6l-1.06-1.06L16 11.4z"/></symbol>

<symbol id="icon-archive" viewBox="0 0 32 32"><title>archive</title><path d="M28.38 10.5H3.63a.62.62 0 0 0-.62.63v16.75a.62.62 0 0 0 .63.63h24.74a.62.62 0 0 0 .63-.62V11.13a.62.62 0 0 0-.63-.63zm-.62 16.75H4.25v-15.5h23.5zM29.38 3.5H2.63a.62.62 0 0 0-.63.63v4.75a.62.62 0 0 0 .63.63h26.75a.62.62 0 0 0 .62-.63V4.13a.62.62 0 0 0-.62-.63zm-.62 4.75H3.25v-3.5h25.5zM14.13 18.5h3.75a1.63 1.63 0 0 0 1.63-1.62v-.75a1.63 1.63 0 0 0-1.62-1.62h-3.76a1.63 1.63 0 0 0-1.62 1.63v.75a1.63 1.63 0 0 0 1.62 1.61zm-.37-2.37a.38.38 0 0 1 .38-.37h3.75a.38.38 0 0 1 .38.38v.75a.38.38 0 0 1-.37.38h-3.77a.38.38 0 0 1-.37-.37z"/></symbol>

<symbol id="icon-arrow-circle-left" viewBox="0 0 32 32"><title>arrow circle left</title><path d="M1.2 16A14.8 14.8 0 1 0 16 1.2 14.82 14.82 0 0 0 1.2 16zm1.41 0A13.39 13.39 0 1 1 16 29.39 13.41 13.41 0 0 1 2.61 16zm11.23-6.14a.7.7 0 1 1 1 1L10.4 15.3h12.9a.7.7 0 0 1 0 1.41H10.4l4.44 4.44a.7.7 0 1 1-1 1L8.2 16.5a.7.7 0 0 1 0-1z"/></symbol>

<symbol id="icon-arrow-circle-right" viewBox="0 0 32 32"><title>arrow circle right</title><path d="M16 1.2A14.8 14.8 0 1 0 30.8 16 14.82 14.82 0 0 0 16 1.2zm0 28.2A13.39 13.39 0 1 1 29.39 16 13.41 13.41 0 0 1 16 29.39zm7.8-13.9a.7.7 0 0 1 0 1l-5.64 5.64a.7.7 0 1 1-1-1l4.44-4.44H8.7a.7.7 0 0 1 0-1.41h12.9l-4.44-4.44a.7.7 0 1 1 1-1z"/></symbol>

<symbol id="icon-arrow-wide-left" viewBox="0 0 32 32"><title>arrow left</title><path d="M1.12 16.4v-.25a.72.72 0 0 1 0-.28v-.25l.09-.11 14.28-14.3a.71.71 0 0 1 1 1L3.44 15.29h26.85a.71.71 0 0 1 0 1.43H3.44L16.5 29.78a.71.71 0 1 1-1 1L1.21 16.51z"/></symbol>

<symbol id="icon-arrow-wide-right" viewBox="0 0 32 32"><title>arrow right</title><path d="M30.88 16.4v-.25a.72.72 0 0 0 0-.28v-.25l-.09-.11-14.28-14.3a.71.71 0 0 0-1 1l13.05 13.08H1.71a.71.71 0 0 0 0 1.43h26.85L15.5 29.78a.71.71 0 1 0 1 1l14.29-14.27z"/></symbol>

<symbol id="icon-arrows" viewBox="0 0 32 32"><title>arrows</title><path d="M29.39 7.06V3.6L17 16l12.4 12.4v-3.46a.7.7 0 1 1 1.41 0v5.16a.71.71 0 0 1 0 .14v.25a.71.71 0 0 1-.2.2h-5.67a.7.7 0 0 1 0-1.41h3.46L16 17 3.6 29.39h3.46a.7.7 0 0 1 0 1.41H1.51a.71.71 0 0 1-.2-.2v-.25a.71.71 0 0 1 0-.14v-5.27a.7.7 0 1 1 1.41 0v3.46L15 16 2.61 3.6v3.46a.7.7 0 0 1-1.41 0V1.9a.71.71 0 0 1 0-.14v-.25a.71.71 0 0 1 .2-.2h5.66a.7.7 0 0 1 0 1.41H3.6L16 15 28.4 2.61h-3.46a.7.7 0 0 1 0-1.41h5.49a.71.71 0 0 1 .2.2v.25a.71.71 0 0 1 0 .14v5.27a.7.7 0 1 1-1.41 0z"/></symbol>

<symbol id="icon-art-and-culture" viewBox="0 0 32 32"><title>art and culture</title><path d="M26.56 4.9A15.46 15.46 0 0 0 16 1 14.53 14.53 0 0 0 5.38 5.38 14.53 14.53 0 0 0 1 16a14.53 14.53 0 0 0 4.38 10.62A14.53 14.53 0 0 0 16 31a3 3 0 0 0 3.08-3.08 3.26 3.26 0 0 0-.75-2.08 1.77 1.77 0 0 1-.44-1.13 1.67 1.67 0 0 1 .48-1.19 1.55 1.55 0 0 1 1.2-.52h2.76a8.45 8.45 0 0 0 6.12-2.51A8.26 8.26 0 0 0 31 14.44a12.34 12.34 0 0 0-4.44-9.54zm.91 14.62a7 7 0 0 1-5.13 2.11h-2.77a2.94 2.94 0 0 0-2.22.93 3 3 0 0 0-.86 2.16 3.15 3.15 0 0 0 .75 2 1.87 1.87 0 0 1 .44 1.2A1.6 1.6 0 0 1 16 29.6a13.17 13.17 0 0 1-9.63-4A13.17 13.17 0 0 1 2.4 16a13.17 13.17 0 0 1 4-9.63A13.17 13.17 0 0 1 16 2.4a14.1 14.1 0 0 1 9.63 3.55 10.85 10.85 0 0 1 4 8.49 6.81 6.81 0 0 1-2.17 5.08zm-2.32-1.86a3.12 3.12 0 0 1-2.21-.89A3 3 0 0 1 22 14.5a3 3 0 0 1 1-2.28 3.21 3.21 0 0 1 4.43 0 3 3 0 0 1 1 2.28 3 3 0 0 1-.95 2.28 3.13 3.13 0 0 1-2.34.88zm0-5a1.81 1.81 0 0 0-1.3.52 1.71 1.71 0 0 0-.54 1.32 1.69 1.69 0 0 0 .54 1.31 1.87 1.87 0 0 0 2.6 0 1.88 1.88 0 0 0 0-2.63 1.82 1.82 0 0 0-1.31-.52zm-5-1.64a3.05 3.05 0 0 1-2.23-.94 3.12 3.12 0 0 1 0-4.45 3.12 3.12 0 0 1 4.45 0 3.12 3.12 0 0 1 0 4.45 3.05 3.05 0 0 1-2.23.92zm0-5a1.87 1.87 0 0 0-1.85 1.84 1.75 1.75 0 0 0 .55 1.29 1.78 1.78 0 0 0 2.58 0 1.79 1.79 0 0 0 0-2.58A1.75 1.75 0 0 0 20.14 6zm-8.28 5a3.05 3.05 0 0 1-2.23-.94 3.12 3.12 0 0 1 0-4.45 3.11 3.11 0 0 1 4.45 0 3.11 3.11 0 0 1 0 4.45 3.05 3.05 0 0 1-2.23.92zm0-5A1.87 1.87 0 0 0 10 7.86a1.75 1.75 0 0 0 .55 1.29 1.78 1.78 0 0 0 2.58 0 1.79 1.79 0 0 0 0-2.58A1.75 1.75 0 0 0 11.86 6zm-5 11.64a3.12 3.12 0 0 1-2.21-.89 3 3 0 0 1-.96-2.27 3 3 0 0 1 1-2.28 3.12 3.12 0 0 1 2.21-.88 3.13 3.13 0 0 1 2.21.88A3 3 0 0 1 10 14.5a3 3 0 0 1-.95 2.28 3.13 3.13 0 0 1-2.19.88zm0-5a1.81 1.81 0 0 0-1.3.52A1.71 1.71 0 0 0 5 14.5a1.69 1.69 0 0 0 .54 1.31 1.87 1.87 0 0 0 2.6 0 1.88 1.88 0 0 0 0-2.63 1.82 1.82 0 0 0-1.28-.52z"/></symbol>

<symbol id="icon-article" viewBox="0 0 32 32"><title>article</title><path d="M30 1.2H8.9a.7.7 0 0 0-.7.7v13.4H2a.7.7 0 0 0-.7.7v10.63a4.18 4.18 0 0 0 4.13 4.17h21.14a4.18 4.18 0 0 0 4.18-4.18V1.9a.7.7 0 0 0-.75-.7zM2.66 26.63V16.7h5.53v9.92a2.77 2.77 0 0 1-5.54 0zm23.92 2.77h-18a4.16 4.16 0 0 0 1.02-2.77v-24h19.74v24a2.77 2.77 0 0 1-2.77 2.76zm.14-25H12.24a.7.7 0 0 0-.7.7v11a.7.7 0 0 0 .7.7h14.47a.7.7 0 0 0 .7-.7v-11a.7.7 0 0 0-.7-.73zm-.7 11H12.94V5.78H26zm1.41 4.07a.7.7 0 0 1-.7.7H12.24a.7.7 0 0 1 0-1.41h14.47a.7.7 0 0 1 .71.67zm0 3.44a.7.7 0 0 1-.7.7H12.24a.7.7 0 0 1 0-1.41h14.47a.7.7 0 0 1 .71.67zm0 3.44a.7.7 0 0 1-.7.7H12.24a.7.7 0 0 1 0-1.41h14.47a.7.7 0 0 1 .71.66z"/></symbol>

<symbol id="icon-attachment" viewBox="0 0 32 32"><title>attachment</title><path d="M30 15.13a.71.71 0 0 0 .23-.54.7.7 0 0 0-.23-.53.72.72 0 0 0-1.07 0L16.2 26.78a7.51 7.51 0 0 1-2.5 1.66 8.6 8.6 0 0 1-2.85.55 7.53 7.53 0 0 1-5.33-2.21 7.44 7.44 0 0 1-1.66-2.49 7.6 7.6 0 0 1-.55-2.84 7.57 7.57 0 0 1 2.2-5.35L18.28 3.4A4.6 4.6 0 0 1 21.64 2 4.67 4.67 0 0 1 25 3.4a4.6 4.6 0 0 1 1.4 3.37 4.6 4.6 0 0 1-1.4 3.36L12.28 22.86a2 2 0 0 1-2.85 0 2 2 0 0 1 0-2.86L21.18 8.28a.71.71 0 0 0 .23-.54.7.7 0 0 0-.23-.53.72.72 0 0 0-1.07 0L8.36 19a3.53 3.53 0 0 0-.77 1.16 3.48 3.48 0 0 0-.26 1.33 3.51 3.51 0 0 0 1 2.48 3.66 3.66 0 0 0 1.18.78 3.56 3.56 0 0 0 2.64 0 3.64 3.64 0 0 0 1.17-.78l12.76-12.78a6.26 6.26 0 0 0 0-8.86A6.14 6.14 0 0 0 24 1a6.21 6.21 0 0 0-2.36-.5h-.14a6.32 6.32 0 0 0-2.22.5 6.19 6.19 0 0 0-2.07 1.37L4.27 15.22A9.11 9.11 0 0 0 2.47 18a9 9 0 0 0 5 11.8 9.06 9.06 0 0 0 9.81-2z"/></symbol>

<symbol id="icon-balance" viewBox="0 0 32 32"><title>balance</title><path d="M30.81 18.69v-.12a.71.71 0 0 0 0-.22L26.15 4.5v-.07l-.15-.2-.09-.08H6.19L6 4.22l-.07.08v.07L1.22 18.34a.71.71 0 0 0 0 .22 5.33 5.33 0 0 0 10.65.34.7.7 0 0 0 0-.15v-.06-.12a.71.71 0 0 0 0-.22L7.49 5.43h7.72v21.14h-4.07a.7.7 0 0 0 0 1.41h9.76a.7.7 0 0 0 0-1.41h-4.28V5.43h7.89l-4.32 12.91a.71.71 0 0 0 0 .22 5.33 5.33 0 0 0 10.65.34.7.7 0 0 0 0-.15s-.03-.04-.03-.06zM29.2 18h-7.43l3.71-11.1zM6.52 6.94L10.23 18H2.8zm0 15.54a3.93 3.93 0 0 1-3.82-3h7.64a3.93 3.93 0 0 1-3.82 3.01zm19 0a3.93 3.93 0 0 1-3.82-3h7.64a3.93 3.93 0 0 1-3.86 3.01z"/></symbol>

<symbol id="icon-ban" viewBox="0 0 32 32"><title>ban</title><path d="M16 1.2A14.8 14.8 0 1 0 30.8 16 14.82 14.82 0 0 0 16 1.2zm0 1.41A13.34 13.34 0 0 1 25 6L6 25A13.39 13.39 0 0 1 16 2.61zm0 26.79A13.34 13.34 0 0 1 7 26L26 7a13.39 13.39 0 0 1-10 22.39z"/></symbol>

<symbol id="icon-basket" viewBox="0 0 32 32"><title>basket</title><path d="M30.1 9.41h-7.34l5-5a.7.7 0 0 0-1-1l-6 6h-9.52l-6-6a.7.7 0 1 0-1 1l5 5H1.9a.7.7 0 0 0-.7.7v5a.7.7 0 0 0 .7.7h.55l1.37 12.33a.7.7 0 0 0 .7.63h23a.7.7 0 0 0 .7-.63l1.37-12.29h.55a.7.7 0 0 0 .7-.7v-5a.7.7 0 0 0-.74-.74zM2.61 10.82h26.78v3.63H2.61zm24.24 16.54H5.15L3.87 15.85h24.26zm-15.38-2.72v-6.07a.7.7 0 1 1 1.41 0v6.07a.7.7 0 1 1-1.41 0zm3.83 0v-6.07a.7.7 0 1 1 1.41 0v6.07a.7.7 0 1 1-1.41 0zm3.83 0v-6.07a.7.7 0 1 1 1.41 0v6.07a.7.7 0 1 1-1.41 0zm3.83 0v-6.07a.7.7 0 1 1 1.41 0v6.07a.7.7 0 1 1-1.41 0zm-15.31 0v-6.07a.7.7 0 1 1 1.41 0v6.07a.7.7 0 1 1-1.41 0z"/></symbol>

<symbol id="icon-bike" viewBox="0 0 32 32"><title>bike</title><path d="M20 8.8a2.9 2.9 0 0 0 2.11-.89A2.9 2.9 0 0 0 23 5.79a3 3 0 0 0-.88-2.13 2.93 2.93 0 0 0-4.26 0 3 3 0 0 0-.92 2.14 2.86 2.86 0 0 0 .93 2.12A3 3 0 0 0 20 8.8zm-1.2-4.21a1.64 1.64 0 0 1 1.2-.53 1.55 1.55 0 0 1 1.17.52 1.69 1.69 0 0 1 .51 1.21 1.6 1.6 0 0 1-.5 1.21 1.64 1.64 0 0 1-2.39 0 1.54 1.54 0 0 1-.52-1.17 1.65 1.65 0 0 1 .52-1.24zm-3.49 10.67l2-1.91.48.48c1.68 1.68 2.89 2.7 5.46 2.7a2.61 2.61 0 0 0 1.84-.53 1.79 1.79 0 0 0 .57-1.38 1.71 1.71 0 0 0-.58-1.37 2.5 2.5 0 0 0-1.83-.44c-1.2 0-1.54-.35-2.52-1.34l-2.55-2.54A2.89 2.89 0 0 0 15.92 8a4.91 4.91 0 0 0-3 1.75l-2.61 2.55a3.24 3.24 0 0 0-1 2.32 2.81 2.81 0 0 0 1 2s2.1 1.82 2.82 2.49l.37.34c.67.62.69.63.69 1.32 0 .49-.25 2.23-.42 3.24a2.32 2.32 0 0 0 .31 1.74 2 2 0 0 0 1.45.79h.33a2 2 0 0 0 1.32-.45 2.1 2.1 0 0 0 .69-1.38s.43-3.06.54-3.94A4.33 4.33 0 0 0 17.08 17zm1.83 5.35c-.1.88-.53 3.91-.54 4a.84.84 0 0 1-.23.5.82.82 0 0 1-.64.12c-.38 0-.49-.19-.52-.24a1 1 0 0 1-.09-.72c0-.28.44-2.75.44-3.5a2.51 2.51 0 0 0-1.12-2.3l-.36-.33c-.74-.69-2.77-2.45-2.85-2.52a1.49 1.49 0 0 1-.57-1 1.93 1.93 0 0 1 .6-1.34l2.59-2.59A3.61 3.61 0 0 1 16 9.32h.07a1.64 1.64 0 0 1 1.18.56l2.54 2.54c1 1 1.71 1.73 3.51 1.73h.11a1.27 1.27 0 0 1 .82.13s.12.1.12.36a.48.48 0 0 1-.13.39 1.41 1.41 0 0 1-.91.2c-2.08 0-3-.67-4.6-2.31l-1.41-1.41-3.85 3.78.48.47 2.24 2.21a3 3 0 0 1 .97 2.64zM7 17.26a6 6 0 1 0 6 6 6 6 0 0 0-6-6zm0 10.68a4.67 4.67 0 1 1 4.67-4.67A4.68 4.68 0 0 1 7 27.94zm18-10.67a6 6 0 1 0 6 6 6 6 0 0 0-6-6zm0 10.67a4.67 4.67 0 1 1 4.67-4.67A4.68 4.68 0 0 1 25 27.94z"/></symbol>

<symbol id="icon-blue-ribbon" viewBox="0 0 32 32"><title>blue ribbon</title><path d="M27.1 27l-3.45-8a7.7 7.7 0 0 1 .95-.73 4.94 4.94 0 0 0 2-2.15 4.94 4.94 0 0 0-.08-3 6.6 6.6 0 0 1-.23-1.31 6.77 6.77 0 0 1 .17-1.28 5.15 5.15 0 0 0-.08-3.15 5.16 5.16 0 0 0-2.29-2.17 6.74 6.74 0 0 1-1.06-.74 6.59 6.59 0 0 1-.82-1 4.94 4.94 0 0 0-2.15-2 4.93 4.93 0 0 0-3 .08 6.6 6.6 0 0 1-1.31.23 6.57 6.57 0 0 1-1.28-.17 5.15 5.15 0 0 0-3.15.08 5.16 5.16 0 0 0-2.13 2.23A6.77 6.77 0 0 1 8.46 5a6.59 6.59 0 0 1-1 .82A4.94 4.94 0 0 0 5.36 8a4.94 4.94 0 0 0 .08 3 6.6 6.6 0 0 1 .23 1.31 6.75 6.75 0 0 1-.17 1.28 5.16 5.16 0 0 0 .08 3.15 5.15 5.15 0 0 0 2.29 2.17l.43.27L4.9 27a.7.7 0 0 0 .83 1l3.87-1.1 1.88 3.53a.7.7 0 0 0 .62.37.7.7 0 0 0 .62-.42L16 22.83l3.26 7.54a.7.7 0 0 0 .62.42.71.71 0 0 0 .62-.37l1.9-3.52 3.86 1.1a.7.7 0 0 0 .83-1zM6.88 16.1a4 4 0 0 1 0-2.32 7.84 7.84 0 0 0 .19-1.57 7.68 7.68 0 0 0-.27-1.62 3.81 3.81 0 0 1-.14-2.13A3.81 3.81 0 0 1 8.21 7a7.67 7.67 0 0 0 1.28-1 7.83 7.83 0 0 0 .91-1.3 4 4 0 0 1 1.54-1.73 4 4 0 0 1 2.32 0 8 8 0 0 0 1.57.19 7.68 7.68 0 0 0 1.62-.27 3.81 3.81 0 0 1 2.13-.14 3.81 3.81 0 0 1 1.49 1.53 7.68 7.68 0 0 0 1 1.28 7.85 7.85 0 0 0 1.3.91A4 4 0 0 1 25.12 8a4 4 0 0 1 0 2.32 7.85 7.85 0 0 0-.19 1.57 7.68 7.68 0 0 0 .27 1.62 3.81 3.81 0 0 1 .14 2.13 3.81 3.81 0 0 1-1.53 1.49 7.67 7.67 0 0 0-1.28 1 5.55 5.55 0 0 0-.59.78l-.3.49a4.87 4.87 0 0 1-1.31 1.6 1.83 1.83 0 0 1-.27.15 2.11 2.11 0 0 1-.8.17 7.28 7.28 0 0 1-1.51-.18L17 21H16.17a4.44 4.44 0 0 0-.53 0h-.09l-.39.07h-.12l-.47.11a3.81 3.81 0 0 1-2.13.14 3.81 3.81 0 0 1-1.49-1.53 10.68 10.68 0 0 0-.72-1l-.23-.12-.12-.12a7.92 7.92 0 0 0-1.28-.9 4 4 0 0 1-1.72-1.55zM12 28.47l-1.45-2.73a.71.71 0 0 0-.62-.37h-.19l-3 .82 2.63-6.08.11.15.06.09.14.2v.07a4.94 4.94 0 0 0 2.15 2l.31.1h1.27l.42-.06h.09l.36-.07h.11zm10.2-3.08a.71.71 0 0 0-.81.35L20 28.47l-2.57-6h.08a5.16 5.16 0 0 0 3.15-.08 3.21 3.21 0 0 0 .37-.19l.11-.07.22-.16.11-.1.18-.16.1-.11.16-.18.09-.11.16-.2.07-.1.16-.23v-.07l.26-.42 2.53 5.86z"/></symbol>

<symbol id="icon-book" viewBox="0 0 32 32"><title>book</title><path d="M8.09 1A3.94 3.94 0 0 0 5.2 2.2 4.12 4.12 0 0 0 4 5.09c-.25 4.37-1 21.82-1 21.82a3.94 3.94 0 0 0 1.2 2.89A3.94 3.94 0 0 0 7.09 31H29v-8.08L28 1zm19.64 24.49v4.18H6.89a2.57 2.57 0 0 1-1.89-.8A2.81 2.81 0 0 1 5 25a2.57 2.57 0 0 1 1.88-.81h20.85zm0-2.57H6.5a2.74 2.74 0 0 0-2 .89 3.1 3.1 0 0 0-.22.28l1-19a3 3 0 0 1 .83-2 2.68 2.68 0 0 1 2-.83h18.64z"/></symbol>

<symbol id="icon-briefcase" viewBox="0 0 32 32"><title>briefcase</title><path d="M30.1 6.47h-9.88V3.68a.7.7 0 0 0-.7-.7h-7.06a.7.7 0 0 0-.7.7v2.8H1.9a.7.7 0 0 0-.7.7v21.14a.7.7 0 0 0 .7.7h28.2a.7.7 0 0 0 .7-.7V7.18a.7.7 0 0 0-.7-.71zm-.7 12.91l-2.79.94v-.09a.7.7 0 0 0-.7-.7h-1.43V7.88h4.92zM12.29 7.88h10.77v11.64h-1.43a.7.7 0 0 0-.7.7v.37h-9.86v-.37a.7.7 0 0 0-.7-.7H8.94V7.88zm-2.64 13v.73H6.79v-.73zm.7 2.14a.7.7 0 0 0 .7-.7V22h9.86v.37a.7.7 0 0 0 .7.7h1.44v4.54H8.94v-4.53zm12-1.41v-.73h2.86v.73zM13.17 4.38h5.64v2.09h-5.64zm-5.64 3.5v11.64H6.09a.7.7 0 0 0-.7.7v.09l-2.78-.94V7.88zm-4.92 13l2.78.94v.56a.7.7 0 0 0 .7.7h1.44v4.54H2.61zm21.87 6.75v-4.55h1.42a.7.7 0 0 0 .7-.7v-.56l2.79-.94v6.75z"/></symbol>

<symbol id="icon-buildings" viewBox="0 0 32 32"><title>buildings</title><path d="M16.16 1h-15v30h29.68V9H16.16V1zM2.49 29.67V2.33h12.35v27.34zm13.67 0V10.33h13.35v19.34zM13.44 4.79H9.77v3.66h1.33V6.11h2.34V4.79zm-5.89 0H3.89v3.66h1.32V6.11h2.34V4.79zm20.56 7.5h-3.66V16h1.33v-2.39h2.34v-1.32zm-6.89 0h-3.66V16h1.33v-2.39h2.34v-1.32zm-7.79 0H9.77V16h1.33v-2.39h2.34v-1.32zm-5.89 0H3.89V16h1.32v-2.39h2.34v-1.32zm20.56 7.5h-3.65v3.66h1.33v-2.34h2.34v-1.32zm-6.89 0h-3.65v3.66h1.33v-2.34h2.34v-1.32zm-7.79 0H9.77v3.66h1.33v-2.34h2.34v-1.32zm-5.89 0H3.89v3.66h1.32v-2.34h2.34v-1.32z"/></symbol>

<symbol id="icon-bullet-list" viewBox="0 0 32 32"><title>bullet list</title><path d="M3.5 7.79A2.5 2.5 0 1 1 6 5.29a2.5 2.5 0 0 1-2.5 2.5zm0-3.57a1.07 1.07 0 1 0 1.07 1.07A1.07 1.07 0 0 0 3.5 4.21zm0 14.29A2.5 2.5 0 1 1 6 16a2.5 2.5 0 0 1-2.5 2.5zm0-3.57A1.07 1.07 0 1 0 4.57 16a1.07 1.07 0 0 0-1.07-1.07zm0 14.29A2.5 2.5 0 1 1 6 26.71a2.5 2.5 0 0 1-2.5 2.5zm0-3.57a1.07 1.07 0 1 0 1.07 1.07 1.07 1.07 0 0 0-1.07-1.09zM31 5.29a.71.71 0 0 0-.71-.71H11A.71.71 0 0 0 11 6h19.29a.71.71 0 0 0 .71-.71zM31 16a.71.71 0 0 0-.71-.71H11a.71.71 0 0 0 0 1.43h19.29A.71.71 0 0 0 31 16zm0 10.71a.71.71 0 0 0-.71-.71H11a.71.71 0 1 0 0 1.43h19.29a.71.71 0 0 0 .71-.72z"/></symbol>

<symbol id="icon-bullhorn" viewBox="0 0 32 32"><title>bullhorn</title><path d="M31.52 14a3.62 3.62 0 0 0-3-3.56V5.28A2.44 2.44 0 0 0 25.87 3h-.25l-.18.17c-.07.06-7 6.5-12.54 6.5H2.74l-.14.08c-.09 0-2.12 1.22-2.12 4.55s2 4.5 2.12 4.55l.14.08h2.42A17.94 17.94 0 0 0 6.33 28l.09.19.19.1a6.49 6.49 0 0 0 2.76.71 4.25 4.25 0 0 0 1.09-.14 7.55 7.55 0 0 0 3-1.65l.43-.41-.39-.45s-2.85-3.35-2.1-7.44a19.41 19.41 0 0 1 14.15 6.35l.2.26h.32a2.38 2.38 0 0 0 2.44-2.22v-5.71A3.62 3.62 0 0 0 31.52 14zM10.9 17.65h-.49l-.12.47a10.64 10.64 0 0 0 1.89 8.55 6.28 6.28 0 0 1-2 1 4.5 4.5 0 0 1-2.75-.36 16.88 16.88 0 0 1-.87-8.92l.15-.75H3.09a4 4 0 0 1-1.36-3.37 4 4 0 0 1 1.36-3.37h9.19v6.8c-.46-.03-.91-.05-1.38-.05zm16.38 5.63c0 .63-.59.85-1 .93a20.35 20.35 0 0 0-12.78-6.4v-7c5.38-.39 11.38-5.54 12.57-6.61.4 0 1.18.24 1.18 1zm1.25-7v-4.53a2.36 2.36 0 0 1 0 4.56z"/></symbol>

<symbol id="icon-calculator" viewBox="0 0 32 32"><title>calculator</title><path d="M26.57 30.8H5.43a.7.7 0 0 1-.7-.7V1.9a.7.7 0 0 1 .7-.7h21.14a.7.7 0 0 1 .7.7v28.2a.7.7 0 0 1-.7.7zM6.13 29.39h19.74V2.61H6.13zm17.62-19.8H8.25a.7.7 0 0 1-.7-.7V4.72a.7.7 0 0 1 .7-.7h15.5a.7.7 0 0 1 .7.7v4.16a.7.7 0 0 1-.7.71zM9 8.18h14V5.43H9zm14.8 7.54h-3.43a.7.7 0 0 1-.7-.7v-3.39a.7.7 0 0 1 .7-.7h3.38a.7.7 0 0 1 .7.7V15a.7.7 0 0 1-.7.72zm-2.68-1.41h2v-2h-2zm-9.45 1.41H8.25a.7.7 0 0 1-.7-.7v-3.39a.7.7 0 0 1 .7-.7h3.38a.7.7 0 0 1 .7.7V15a.7.7 0 0 1-.7.72zM9 14.31h2v-2H9zm8.74 1.41h-3.43a.7.7 0 0 1-.7-.7v-3.39a.7.7 0 0 1 .7-.7h3.38a.7.7 0 0 1 .7.7V15a.7.7 0 0 1-.7.72zM15 14.31h2v-2h-2zm8.74 7.61h-3.37a.7.7 0 0 1-.7-.7v-3.39a.7.7 0 0 1 .7-.7h3.38a.7.7 0 0 1 .7.7v3.38a.7.7 0 0 1-.7.71zm-2.68-1.41h2v-2h-2zm-9.45 1.41H8.25a.7.7 0 0 1-.7-.7v-3.39a.7.7 0 0 1 .7-.7h3.38a.7.7 0 0 1 .7.7v3.38a.7.7 0 0 1-.7.71zM9 20.51h2v-2H9zm8.74 1.41h-3.43a.7.7 0 0 1-.7-.7v-3.39a.7.7 0 0 1 .7-.7h3.38a.7.7 0 0 1 .7.7v3.38a.7.7 0 0 1-.7.71zM15 20.51h2v-2h-2zm8.74 7.61h-3.37a.7.7 0 0 1-.7-.7V24a.7.7 0 0 1 .7-.7h3.38a.7.7 0 0 1 .7.7v3.38a.7.7 0 0 1-.7.75zm-2.68-1.41h2v-2h-2zm-9.45 1.41H8.25a.7.7 0 0 1-.7-.7V24a.7.7 0 0 1 .7-.7h3.38a.7.7 0 0 1 .7.7v3.38a.7.7 0 0 1-.7.75zM9 26.72h2v-2H9zm8.74 1.41h-3.43a.7.7 0 0 1-.7-.7V24a.7.7 0 0 1 .7-.7h3.38a.7.7 0 0 1 .7.7v3.38a.7.7 0 0 1-.7.75zM15 26.72h2v-2h-2z"/></symbol>

<symbol id="icon-calendar" viewBox="0 0 32 32"><title>calendar</title><path d="M30 3.44h-7.91V2.3a.7.7 0 0 0-1.41 0v1.14h-9.43V2.3a.7.7 0 0 0-1.41 0v1.14H2a.7.7 0 0 0-.7.7V29.7a.7.7 0 0 0 .7.7h28a.7.7 0 0 0 .7-.7V4.14a.7.7 0 0 0-.7-.7zM9.84 4.85V6a.7.7 0 0 0 1.41 0V4.85h9.43V6a.7.7 0 0 0 1.41 0V4.85h7.22v4.9H2.69v-4.9zM2.69 29V11.16h26.62V29z"/></symbol>

<symbol id="icon-camera" viewBox="0 0 32 32"><title>camera</title><path d="M30.1 6.48h-9.87V3.66a.7.7 0 0 0-.7-.7h-7a.7.7 0 0 0-.7.7v2.82H1.9a.7.7 0 0 0-.7.7v21.16a.7.7 0 0 0 .7.7h28.2a.7.7 0 0 0 .7-.7V7.19a.7.7 0 0 0-.7-.71zM13.18 4.37h5.64v2.11h-5.64zm16.21 23.26H2.61V7.89h26.78zM8.25 17.76A7.75 7.75 0 1 0 16 10a7.76 7.76 0 0 0-7.75 7.76zm14.1 0A6.34 6.34 0 1 1 16 11.42a6.35 6.35 0 0 1 6.34 6.34zm-10.57 0A4.23 4.23 0 1 0 16 13.53a4.23 4.23 0 0 0-4.23 4.23zm7 0A2.82 2.82 0 1 1 16 14.94a2.82 2.82 0 0 1 2.82 2.82z"/></symbol>

<symbol id="icon-chat" viewBox="0 0 32 32"><title>chat</title><path d="M30.07 1.25H12.81a.7.7 0 0 0-.7.7v10.18H1.93a.7.7 0 0 0-.7.7v12.94a.7.7 0 0 0 .7.7h1.84V30a.7.7 0 0 0 1.2.5L9 26.48h10.19a.7.7 0 0 0 .7-.7V15.6H23l4 4.07a.7.7 0 0 0 1.2-.5V15.6h1.84a.7.7 0 0 0 .7-.7V2a.7.7 0 0 0-.67-.75zM18.48 25.07H8.75a.7.7 0 0 0-.5.21l-3.07 3.06v-2.57a.7.7 0 0 0-.7-.7H2.64V13.54h9.26l.21 1.46v.33h6.07zm10.88-10.88h-1.84a.7.7 0 0 0-.7.7v2.57l-3.07-3.06a.7.7 0 0 0-.5-.21h-9.73V2.66h15.84zM15.68 5.41a.7.7 0 0 1 .7-.7h10.1a.7.7 0 0 1 0 1.41H16.39a.7.7 0 0 1-.71-.71zm0 3a.7.7 0 0 1 .7-.7h10.1a.7.7 0 0 1 0 1.41H16.39a.7.7 0 0 1-.71-.71zm0 3a.7.7 0 0 1 .7-.7h10.1a.7.7 0 0 1 0 1.41H16.39a.7.7 0 0 1-.71-.7z"/></symbol>

<symbol id="icon-check" viewBox="0 0 32 32"><title>check</title><path d="M30.6 6.16a.7.7 0 0 0-1 0L11.42 24.34l-9-9a.7.7 0 0 0-1 1l9.52 9.52a.7.7 0 0 0 1 0L30.6 7.16a.7.7 0 0 0 0-1z"/></symbol>

<symbol id="icon-checkbox" viewBox="0 0 32 32"><title>checkbox</title><path d="M25.77 14.29v14.33a.7.7 0 0 1-.7.7H2a.7.7 0 0 1-.7-.7V5.6a.7.7 0 0 1 .7-.7h18.32a.7.7 0 0 1 0 1.41H2.75v21.6h21.61V14.29a.7.7 0 1 1 1.41 0zm4.68-11.4a.7.7 0 0 0-1 0l-15 15L10 13.55a.7.7 0 0 0-1 1l4.87 4.87a.7.7 0 0 0 1 0L30.45 3.88a.7.7 0 0 0 0-1z"/></symbol>

<symbol id="icon-chevron-left" viewBox="0 0 32 32"><title>chevron left</title><path d="M6.45 15.5l14.1-14.1a.7.7 0 0 1 1 1L7.95 16l13.6 13.6a.7.7 0 1 1-1 1L6.45 16.5a.7.7 0 0 1 0-1z"/></symbol>

<symbol id="icon-chevron-right" viewBox="0 0 32 32"><title>chevron right</title><path d="M25.55 15.5L11.45 1.4a.7.7 0 0 0-1 1L24.05 16l-13.6 13.6a.7.7 0 1 0 1 1l14.1-14.1a.7.7 0 0 0 0-1z"/></symbol>

<symbol id="icon-clock" viewBox="0 0 32 32"><title>clock</title><path d="M21.38 20.51a.7.7 0 1 1-1 1l-5.07-5.2V7a.7.7 0 1 1 1.4 0v8.72zM30.5 16A14.5 14.5 0 1 1 16 1.5 14.5 14.5 0 0 1 30.5 16zm-1.4 0A13.1 13.1 0 1 0 16 29.1 13.11 13.11 0 0 0 29.1 16z"/></symbol>

<symbol id="icon-close-circle" viewBox="0 0 32 32"><title>close circle</title><path d="M21.44 11.55L17 16l4.45 4.45a.7.7 0 0 1-1 1L16 17l-4.45 4.45a.7.7 0 0 1-1-1L15 16l-4.45-4.45a.7.7 0 0 1 1-1L16 15l4.45-4.45a.7.7 0 0 1 1 1zM30.5 16A14.5 14.5 0 1 1 16 1.5 14.5 14.5 0 0 1 30.5 16zm-1.4 0A13.1 13.1 0 1 0 16 29.1 13.11 13.11 0 0 0 29.1 16z"/></symbol>

<symbol id="icon-close" viewBox="0 0 32 32"><title>close</title><path d="M22.14 21.14a.7.7 0 1 1-1 1L16 17l-5.14 5.14a.7.7 0 1 1-1-1L15 16l-5.14-5.14a.7.7 0 0 1 1-1L16 15l5.14-5.14a.7.7 0 0 1 1 1L17 16z"/></symbol>

<symbol id="icon-cloud" viewBox="0 0 32 32"><title>cloud</title><path d="M22.77 10.3a8 8 0 0 0-1 .06 9.87 9.87 0 0 0-17.59 6 5.28 5.28 0 0 0 2.3 10.01h16.29a8 8 0 1 0 0-16.07zm0 14.64H6.48a3.87 3.87 0 0 1-1.31-7.52.71.71 0 0 0 .47-.68v-.08-.17a8.46 8.46 0 0 1 15.3-5 .71.71 0 0 0 .69.28 6.7 6.7 0 0 1 1.14-.1 6.63 6.63 0 1 1 0 13.25z"/></symbol>

<symbol id="icon-cocktail" viewBox="0 0 32 32"><title>cocktail</title><path d="M29.34 1.75c.36-.41.21-.75-.34-.75H3c-.55 0-.7.34-.34.75L15.3 16.2v13.4H8.5V31h15v-1.4h-6.8V16.2zm-2.43.65L16 14.87 5.09 2.4z"/></symbol>

<symbol id="icon-coffee" viewBox="0 0 32 32"><title>coffee</title><path d="M25.42 27.53H5.59a4.44 4.44 0 0 1-3.25-1.34A4.44 4.44 0 0 1 1 22.94v-.62h29v.63a4.59 4.59 0 0 1-4.59 4.59zm-23.12-4a3.18 3.18 0 0 0 .93 1.74 3.19 3.19 0 0 0 2.36 1h19.83a3.36 3.36 0 0 0 3.29-2.72zm17.66-2H9.06a4 4 0 0 1-2.89-1.21A4 4 0 0 1 5 17.49V6.09a1.63 1.63 0 0 1 1.58-1.62h17.85a6.36 6.36 0 0 1 4.64 1.93A6.36 6.36 0 0 1 31 11a6.36 6.36 0 0 1-1.93 4.65 6.36 6.36 0 0 1-4.65 1.93h-.37a4.12 4.12 0 0 1-4.09 4zM6.58 5.72a.38.38 0 0 0-.37.37v11.4a2.87 2.87 0 0 0 2.84 2.84H20a2.87 2.87 0 0 0 2.84-2.84v-1.12h1.62a5.09 5.09 0 0 0 3.76-1.56A5.09 5.09 0 0 0 29.75 11a5.09 5.09 0 0 0-1.56-3.76 5.09 5.09 0 0 0-3.76-1.56zm17.84 8.92h-1.61v-7.2h1.62A3.59 3.59 0 0 1 28 11a3.59 3.59 0 0 1-3.6 3.6zm-.37-1.25h.37A2.34 2.34 0 0 0 26.78 11a2.34 2.34 0 0 0-2.35-2.35h-.37z"/></symbol>

<symbol id="icon-contact" viewBox="0 0 32 32"><title>contact</title><path d="M26.07 31a.71.71 0 0 1-.51-.21l-6.86-6.9h-17a.71.71 0 0 1-.7-.71V1.75A.71.71 0 0 1 1.71 1h28.58a.71.71 0 0 1 .71.71v21.47a.71.71 0 0 1-.71.71h-3.5v6.36a.71.71 0 0 1-.71.71zM2.43 22.46H19a.71.71 0 0 1 .51.21l5.85 5.85v-5.34a.71.71 0 0 1 .71-.71h3.5v-20H2.43z"/></symbol>

<symbol id="icon-credit-card" viewBox="0 0 32 32"><title>credit card</title><path d="M28.26 6.11H3.74A2.54 2.54 0 0 0 1.2 8.65v14.7a2.54 2.54 0 0 0 2.54 2.54h24.52a2.54 2.54 0 0 0 2.54-2.54V8.65a2.54 2.54 0 0 0-2.54-2.54zm1.13 17.24a1.13 1.13 0 0 1-1.13 1.13H3.74a1.13 1.13 0 0 1-1.13-1.13v-8.74h26.78zm0-10.15H2.61V11h26.78zm0-3.64H2.61v-.91a1.13 1.13 0 0 1 1.13-1.13h24.52a1.13 1.13 0 0 1 1.13 1.13zm-24.88 8a.7.7 0 0 1 .7-.7h8.09a.7.7 0 0 1 0 1.41H5.22a.7.7 0 0 1-.71-.72zm0 3.64a.7.7 0 0 1 .7-.7h8.09a.7.7 0 0 1 0 1.41H5.22a.7.7 0 0 1-.71-.72z"/></symbol>

<symbol id="icon-desktop-computer" viewBox="0 0 32 32"><title>desktop computer</title><path d="M30.1 1.2H1.9a.7.7 0 0 0-.7.7V25a.7.7 0 0 0 .7.7h13.4v3.67H8.45a.7.7 0 1 0 0 1.41h15.1a.7.7 0 1 0 0-1.41H16.7v-3.64h13.4a.7.7 0 0 0 .7-.7V1.9a.7.7 0 0 0-.7-.7zm-.7 1.41v18.2H2.61V2.61zM2.61 24.32v-2.11h26.78v2.11z"/></symbol>

<symbol id="icon-dining" viewBox="0 0 32 32"><title>dining</title><path d="M9.63 18.59l-5.15-4.92C1.2 10.39.61 6.84 2.67 2.82L3.08 2 14.9 13.46zM3.47 4.24c-1.31 3.14-.69 5.85 1.94 8.47l4.22 4L13 13.46zm1.61 26.1L2 27.35l.49-.47c.12-.11 10.82-10.54 14.51-14.16-1-2.49 0-5.72 2.4-8.08 3.18-3.1 7.75-3.64 10.18-1.17a5.17 5.17 0 0 1 1.58 3.82 8.67 8.67 0 0 1-2.8 6.13c-2.36 2.34-5.66 3.27-8.26 2.37zm-1.17-3l1.17 1.14L19.8 14.23l.41.18c2.17 1 5.14.16 7.22-1.93a7.46 7.46 0 0 0 2.41-5.18 3.89 3.89 0 0 0-1.18-2.88C26.72 2.46 23 3 20.33 5.59c-2.14 2.09-3 5-2 7l.2.42-.33.33c-2.9 2.9-12.07 11.84-14.29 14.01zm22.1 3l-9.76-9.46 3.07-3 9.76 9.46zm-7.86-9.47L26 28.49l1.17-1.14-7.86-7.62z"/></symbol>

<symbol id="icon-directions" viewBox="0 0 32 32"><title>directions</title><path d="M30.84 5.76L28 2.2a.71.71 0 0 0-.56-.27H16.73v-.16a.71.71 0 1 0-1.42 0v3.58H4.56a.71.71 0 0 0-.56.27L1.16 9.17a.71.71 0 0 0 0 .89L4 13.62a.71.71 0 0 0 .56.27h10.75v15.62h-1.42a.71.71 0 0 0 0 1.42h4.27a.71.71 0 0 0 0-1.42h-1.43v-19h10.71a.71.71 0 0 0 .56-.31l2.85-3.56a.71.71 0 0 0-.01-.88zm-15.62 6.7H4.9L2.62 9.62 4.9 6.77h10.33zM27.1 9H16.77V3.36H27.1l2.28 2.84z"/></symbol>

<symbol id="icon-directory" viewBox="0 0 32 32"><title>directory</title><path d="M27.48 1.2H6.33a.7.7 0 0 0-.7.7v3.62H4.52a.7.7 0 0 0 0 1.41h1.1V15h-1.1a.7.7 0 0 0 0 1.41h1.1v8.08h-1.1a.7.7 0 0 0 0 1.41h1.1v4.2a.7.7 0 0 0 .7.7h21.16a.7.7 0 0 0 .7-.7V1.9a.7.7 0 0 0-.7-.7zm-.7 28.2H7v-3.5h1a.7.7 0 0 0 0-1.41H7v-8.07h1A.7.7 0 0 0 8 15H7V6.93h1a.7.7 0 0 0 0-1.41H7V2.61h19.77zm-9.45-8.9a8 8 0 0 0 2.7-.44l-.26-1a7.15 7.15 0 0 1-2.48.45 3.78 3.78 0 0 1-2.66-.87 3.79 3.79 0 0 1-1.19-2.77 4 4 0 0 1 1.09-2.73A3.71 3.71 0 0 1 17.18 12a3.49 3.49 0 0 1 2.51 1 3.06 3.06 0 0 1 .8 2.11 3 3 0 0 1-.73 2 .76.76 0 0 1-.44.21.3.3 0 0 1-.23-.08.54.54 0 0 1-.12-.39 2.63 2.63 0 0 1 .06-.47l.55-2.8h-1.17l-.11.58a1.46 1.46 0 0 0-1.37-.72 2.19 2.19 0 0 0-1.64.7 2.84 2.84 0 0 0-.76 2.06 2.15 2.15 0 0 0 .58 1.61 1.8 1.8 0 0 0 1.38.55 1.92 1.92 0 0 0 1.68-.88.91.91 0 0 0 .32.51 1.11 1.11 0 0 0 .74.26 1.79 1.79 0 0 0 1.28-.55 3.74 3.74 0 0 0 1-2.66 3.8 3.8 0 0 0-1.14-2.84 4.36 4.36 0 0 0-3.18-1.2 4.79 4.79 0 0 0-3.5 1.34 4.63 4.63 0 0 0-1.39 3.45 5 5 0 0 0 1.28 3.37 4.9 4.9 0 0 0 3.74 1.34zm.21-3.66a1 1 0 0 1-.74.32.9.9 0 0 1-.65-.25 1.1 1.1 0 0 1-.29-.8 1.7 1.7 0 0 1 .48-1.19 1 1 0 0 1 .77-.32.84.84 0 0 1 .59.21 1.12 1.12 0 0 1 .3.84 1.74 1.74 0 0 1-.48 1.19z"/></symbol>

<symbol id="icon-document" viewBox="0 0 32 32"><title>document</title><path d="M25.86 10.29a.7.7 0 0 0 0-.16.7.7 0 0 0-.09-.15l-7-8.46-.1-.1-.1-.06H6.84a.7.7 0 0 0-.7.7V30.1a.7.7 0 0 0 .7.7h18.32a.7.7 0 0 0 .7-.7V10.36a.68.68 0 0 0 0-.07zm-7-6.44l1.44 1.73 3.4 4.08h-4.88zM7.54 29.39V2.61h9.87v7.75a.7.7 0 0 0 .7.7h6.34v18.33zm14.73-14.8a.7.7 0 0 1-.7.7H10.43a.7.7 0 0 1 0-1.41h11.14a.7.7 0 0 1 .7.71zm0 3.85a.7.7 0 0 1-.7.7H10.43a.7.7 0 0 1 0-1.41h11.14a.7.7 0 0 1 .7.71zm0 3.85a.7.7 0 0 1-.7.7H10.43a.7.7 0 0 1 0-1.41h11.14a.7.7 0 0 1 .7.72zm0 3.85a.7.7 0 0 1-.7.7H10.43a.7.7 0 0 1 0-1.41h11.14a.7.7 0 0 1 .7.72z"/></symbol>

<symbol id="icon-dollar" viewBox="0 0 32 32"><title>dollar</title><path d="M21.09 22.83c0-2.09-1.41-4.4-4.47-7.47-2.76-2.76-4-4.75-4-6.69s1-3.74 3.42-3.74 3.43 1.49 3.43 4v1.25h1.48v-1.6a4.7 4.7 0 0 0-4.35-5.05V1h-1.2v2.53c-3.1.35-4.23 3-4.23 5.32s1.76 4.73 4.57 7.65 3.76 4.32 3.76 6.89A3.32 3.32 0 0 1 16 27c-2.19 0-3.63-1.52-3.63-4.07v-1.16h-1.46v1.55a4.93 4.93 0 0 0 4.5 5.11V31h1.19v-2.55c2.19-.27 4.49-2 4.49-5.62z"/></symbol>

<symbol id="icon-drag" viewBox="0 0 32 32"><title>drag</title><path d="M30.6 16.5l-2.82 2.82a.7.7 0 0 1-1-1l1.62-1.62H16.7v11.7l1.62-1.62a.7.7 0 0 1 1 1L16.5 30.6l-.11.09H15.61l-.11-.09-2.82-2.82a.7.7 0 0 1 1-1l1.62 1.62V16.7H3.6l1.62 1.62a.7.7 0 1 1-1 1L1.4 16.5l-.09-.11v-.25a.71.71 0 0 1 0-.28v-.25l.09-.11 2.82-2.82a.7.7 0 0 1 1 1L3.6 15.29h11.7V3.6l-1.62 1.62a.7.7 0 0 1-1-1L15.5 1.4l.11-.09h.25a.71.71 0 0 1 .28 0h.25l.11.09 2.82 2.82a.7.7 0 1 1-1 1L16.7 3.6v11.69h11.7l-1.62-1.62a.7.7 0 0 1 1-1l2.82 2.83.09.11v.25a.71.71 0 0 1 0 .28v.25z"/></symbol>

<symbol id="icon-email" viewBox="0 0 32 32"><title>email</title><path d="M30.1 6.11H1.9a.7.7 0 0 0-.7.7v18.37a.7.7 0 0 0 .7.7h28.2a.7.7 0 0 0 .7-.7V6.82a.7.7 0 0 0-.7-.71zM2.61 8.45L13.39 16 2.61 23.55zM16 16.1L3.74 7.52h24.52zm-1.38.76l1 .68a.71.71 0 0 0 .81 0l1-.68 10.89 7.62H3.74zm4-.86l10.77-7.55v15.1z"/></symbol>

<symbol id="icon-experimental" viewBox="0 0 32 32"><title>experimental</title><path d="M28.06 26.42l-8.64-14.68V4.25h2.28V3H10.3v1.25h2.28v7.49L3.94 26.42a1.71 1.71 0 0 0-.06 1.75 1.73 1.73 0 0 0 1.54.83h21.16a1.66 1.66 0 0 0 1.48-2.58zM13.83 12.08V4.25h4.34v7.83L22.83 20H9.17zM27 27.55a.51.51 0 0 1-.46.2H5.42a.52.52 0 0 1-.46-.2.51.51 0 0 1 .06-.5l3.41-5.8h15.14l3.43 5.8a.53.53 0 0 1 0 .5z"/></symbol>

<symbol id="icon-facebook" viewBox="0 0 32 32"><title>facebook</title><path d="M24.16 5v3.55h-2.1A2 2 0 0 0 20.5 9a2.22 2.22 0 0 0-.4 1.45V13H24l-.52 4H20.1v10.14H16V17h-3.42v-4H16v-2.91a5.18 5.18 0 0 1 1.39-3.86 5.05 5.05 0 0 1 3.71-1.37 22.1 22.1 0 0 1 3.06.14z"/></symbol>

<symbol id="icon-family" viewBox="0 0 32 32"><title>family</title><path d="M2.35 24c.21-6.11 1.93-9 5.6-9.42a4 4 0 0 0 1.62.42h.37A4.09 4.09 0 0 0 14 10.87V8.4a4.09 4.09 0 0 0-4.06-4.08h-.37A4.09 4.09 0 0 0 5.49 8.4v2.48a4 4 0 0 0 1 2.67C2 14.81 1 19.78 1 25.36h6.83A7.88 7.88 0 0 1 8.24 24H2.35zM6.82 8.4a2.76 2.76 0 0 1 2.75-2.76h.37A2.76 2.76 0 0 1 12.7 8.4v2.48a2.76 2.76 0 0 1-2.75 2.75h-.38a2.76 2.76 0 0 1-2.75-2.75zm.36 5.76zm18.29-.61a4 4 0 0 0 1-2.68V8.4a4.09 4.09 0 0 0-4.08-4.08h-.37A4.09 4.09 0 0 0 18 8.4v2.48A4.09 4.09 0 0 0 22.06 15h.37a4 4 0 0 0 1.63-.35c2.64.29 5.31 2 5.59 9.43h-5.89a7.88 7.88 0 0 1 .41 1.33H31c0-5.62-1.12-10.58-5.52-11.86zm-.29-2.68a2.76 2.76 0 0 1-2.75 2.75h-.37a2.76 2.76 0 0 1-2.75-2.75V8.4a2.76 2.76 0 0 1 2.75-2.75h.37a2.76 2.76 0 0 1 2.75 2.75zM19.24 21a3.66 3.66 0 0 0 .46-1.75v-1.52a3.7 3.7 0 0 0-7.41 0v1.52a3.66 3.66 0 0 0 .47 1.75A6.7 6.7 0 0 0 9 26.2l-.18 1.48h14.3L23 26.2a6.7 6.7 0 0 0-3.76-5.2zm-5.62-3.27a2.38 2.38 0 0 1 4.76 0v1.52a2.38 2.38 0 0 1-4.76 0zm-3.28 8.63a5.35 5.35 0 0 1 3.27-4.3 3.63 3.63 0 0 0 4.77 0 5.35 5.35 0 0 1 3.27 4.3z"/></symbol>

<symbol id="icon-fat-arrow" viewBox="0 0 32 32"><title>fat arrow</title><path d="M30.79 15.5L22.33 7a.7.7 0 0 0-1 1l3 3H1.7a.7.7 0 1 0 0 1.41h24L29.3 16l-3.59 3.59H1.7a.7.7 0 0 0 0 1.41h22.6l-3 3a.7.7 0 1 0 1 1l8.46-8.46a.7.7 0 0 0 .03-1.04z"/></symbol>

<symbol id="icon-fill-in" viewBox="0 0 32 32"><title>fill in</title><path d="M29.74 2.26a4.32 4.32 0 0 0-6.1 0l-.85.85-1.6 1.6a.66.66 0 0 0-.31.31L3.75 22.15l-.09.11a.71.71 0 0 0-.07.14L1 30.05a.72.72 0 0 0 .91.91l7.62-2.54.13-.06.11-.09L27.13 11l1.76-1.76.85-.85a4.31 4.31 0 0 0 0-6.1zm-8.2 4.13l4.07 4.07L9.34 26.72l-4.06-4.06zM2.85 29.14L4.57 24 8 27.43zm23.77-19.7l-4.06-4.06.75-.75 4.06 4.07zm2.1-2.1l-.34.34-4.06-4.06.34-.34a2.87 2.87 0 0 1 4.07 4.07z"/></symbol>

<symbol id="icon-flag" viewBox="0 0 32 32"><title>flag</title><path d="M23.93 9.27L27 2.9a.71.71 0 0 0-.64-1H8.5v-.19a.71.71 0 0 0-1.43 0v27.86H5.64a.71.71 0 1 0 0 1.43h4.29a.71.71 0 1 0 0-1.43H8.5v-12.9h17.86a.71.71 0 0 0 .64-1zm-15.39 6V3.3h16.68L22.49 9a.72.72 0 0 0 0 .62l2.73 5.66z"/></symbol>

<symbol id="icon-folder" viewBox="0 0 32 32"><title>folder</title><path d="M30.1 3.33H19.8a.7.7 0 0 0-.5.21l-4 4H1.9a.7.7 0 0 0-.7.7V28a.7.7 0 0 0 .7.7h28.2a.7.7 0 0 0 .7-.7V4a.7.7 0 0 0-.7-.67zm-10 1.41h9.3v2.78H17.32zm9.3 22.52H2.61V8.93h26.78z"/></symbol>

<symbol id="icon-gear" viewBox="0 0 32 32"><title>gear</title><path d="M16 20.29A4.29 4.29 0 1 1 20.29 16 4.29 4.29 0 0 1 16 20.29zm0-7.14A2.86 2.86 0 1 0 18.86 16 2.86 2.86 0 0 0 16 13.14zM18.9 31h-5.8a.71.71 0 0 1-.71-.71v-2.53a12.23 12.23 0 0 1-2.15-.89l-1.79 1.78a.71.71 0 0 1-1 0l-4.1-4.1a.71.71 0 0 1 0-1l1.79-1.79a12.24 12.24 0 0 1-.89-2.15H1.71A.71.71 0 0 1 1 18.9v-5.8a.71.71 0 0 1 .71-.71h2.53a12.24 12.24 0 0 1 .89-2.15L3.35 8.45a.71.71 0 0 1 0-1l4.1-4.1a.71.71 0 0 1 1 0l1.79 1.79a12.24 12.24 0 0 1 2.15-.89V1.71A.71.71 0 0 1 13.1 1h5.8a.71.71 0 0 1 .71.71v2.53a12.24 12.24 0 0 1 2.15.89l1.79-1.79a.71.71 0 0 1 1 0l4.1 4.1a.71.71 0 0 1 0 1l-1.79 1.79a12.22 12.22 0 0 1 .89 2.15h2.53a.71.71 0 0 1 .71.71v5.81a.71.71 0 0 1-.71.71h-2.52a12.23 12.23 0 0 1-.89 2.15l1.79 1.79a.71.71 0 0 1 0 1l-4.1 4.1a.71.71 0 0 1-1 0l-1.79-1.79a12.23 12.23 0 0 1-2.15.89v2.53a.71.71 0 0 1-.72.72zm-5.08-1.43h4.36v-2.35a.71.71 0 0 1 .54-.69 10.8 10.8 0 0 0 2.8-1.16.71.71 0 0 1 .87.11l1.67 1.67 3.09-3.08-1.67-1.67a.71.71 0 0 1-.11-.87 10.81 10.81 0 0 0 1.16-2.8.71.71 0 0 1 .69-.54h2.35v-4.37h-2.35a.71.71 0 0 1-.69-.54 10.81 10.81 0 0 0-1.16-2.8.71.71 0 0 1 .11-.87l1.67-1.67-3.1-3.08-1.66 1.67a.71.71 0 0 1-.87.11 10.8 10.8 0 0 0-2.8-1.16.71.71 0 0 1-.54-.69V2.43h-4.36v2.35a.71.71 0 0 1-.54.69 10.8 10.8 0 0 0-2.8 1.16.71.71 0 0 1-.87-.11L7.95 4.86 4.86 7.95l1.67 1.66a.71.71 0 0 1 .11.87 10.79 10.79 0 0 0-1.16 2.8.71.71 0 0 1-.69.54H2.43v4.36h2.35a.71.71 0 0 1 .69.54 10.79 10.79 0 0 0 1.16 2.8.71.71 0 0 1-.11.87l-1.66 1.66 3.09 3.08 1.67-1.67a.71.71 0 0 1 .87-.11 10.8 10.8 0 0 0 2.8 1.16.71.71 0 0 1 .54.69z"/></symbol>

<symbol id="icon-gift" viewBox="0 0 32 32"><title>gift</title><path d="M29.85 6.1H27a5.23 5.23 0 0 0-3.85-4.48 5.42 5.42 0 0 0-6 2.14L16 5.41l-1.14-1.65a5.42 5.42 0 0 0-6-2.14A5.23 5.23 0 0 0 5 6.1H2.15a.7.7 0 0 0-.7.7v4.95a.7.7 0 0 0 .7.7h.78v17.44a.7.7 0 0 0 .7.7h24.74a.7.7 0 0 0 .7-.7V12.46h.78a.7.7 0 0 0 .7-.7V6.8a.7.7 0 0 0-.7-.7zM18.3 4.57A4 4 0 0 1 22.76 3a3.81 3.81 0 0 1 2.81 3.1h-8.33zM9.24 3a4 4 0 0 1 4.46 1.57l1.06 1.53H6.43A3.81 3.81 0 0 1 9.24 3zM2.85 7.51h12.34V11H2.85zm1.48 4.95h10.86v16.72H4.34zm23.33 16.72H16.6V12.46h11.06zM29.15 11H16.6V7.51h12.55z"/></symbol>

<symbol id="icon-golf" viewBox="0 0 32 32"><title>golf</title><path d="M0 0h32v32H0z" fill="none"/><path d="M30.6 27.15v-.11a1.3 1.3 0 0 0-.13-.22l-.09-.11-.2-.19-.11-.1a3.42 3.42 0 0 0-.37-.25l-.21-.11-.26-.13-.28-.12-.26-.1-.33-.11-.64-.19a2.63 2.63 0 0 0 0-.42 2.66 2.66 0 0 0-5.29-.39l-.66-.05h-.11l-.83-.06H16c-.41 0-1.69 0-3.34.08V12.29L24.65 7 11.34 1.13v23.36c-4.32.26-10 1-10 3 0 3.07 13.16 3.16 14.66 3.16s14.66-.09 14.66-3.16a1 1 0 0 0-.06-.34zM12.66 10.84V3.16L21.37 7zM25 23.66A1.34 1.34 0 1 1 23.66 25 1.34 1.34 0 0 1 25 23.66zm-9 5.68c-8.27 0-12.67-1.18-13.3-1.84.5-.52 3.37-1.37 8.63-1.7v.74c-1.06.12-1.84.5-1.84 1s1.12 1 2.5 1 2.5-.45 2.5-1-.78-.84-1.84-1v-.81c1 0 2.14-.07 3.34-.07h4.25l1.25.08h.29l.74.07a2.64 2.64 0 0 0 4.55.69l.7.18a8 8 0 0 1 1 .35l.27.14h.05a1 1 0 0 1 .18.14c-.6.85-5 2.03-13.27 2.03z"/></symbol>

<symbol id="icon-googleplus" viewBox="0 0 32 32"><title>google plus</title><path d="M19.69 16.22A10 10 0 0 1 18.57 21a8.13 8.13 0 0 1-3.21 3.29 9.51 9.51 0 0 1-4.78 1.18 9.32 9.32 0 0 1-3.69-.75 9.29 9.29 0 0 1-5.05-5.05 9.45 9.45 0 0 1 0-7.39 9.29 9.29 0 0 1 5.04-5.03 9.32 9.32 0 0 1 3.69-.75A9 9 0 0 1 16.93 9l-2.58 2.47A5.23 5.23 0 0 0 10.57 10a5.67 5.67 0 0 0-2.95.8A6.09 6.09 0 0 0 5.48 19a5.91 5.91 0 0 0 2.14 2.2 5.67 5.67 0 0 0 2.95.8 6.24 6.24 0 0 0 2-.3A5 5 0 0 0 14 21a5.42 5.42 0 0 0 1-1 4.65 4.65 0 0 0 .63-1.08 4.81 4.81 0 0 0 .28-1h-5.34v-3.28h9a8.46 8.46 0 0 1 .12 1.58zm11.24-1.58v2.72h-2.71v2.71H25.5v-2.71h-2.71v-2.72h2.71v-2.71h2.72v2.71z"/></symbol>

<symbol id="icon-graduation-cap" viewBox="0 0 32 32"><title>graduation cap</title><path d="M30.08 12L16.92 6.39a2 2 0 0 0-1.76 0L1.92 12c-.51.22-.51.57 0 .78l2.17.92v6.55a1.2 1.2 0 0 0-.1 2L3 26h3.5l-1-3.74a1.2 1.2 0 0 0-.1-2v-6l2 .86h-.1v5.18c0 1.64 3.37 4.78 8.66 4.78 5.69 0 8.66-3.11 8.66-4.78v-5.17h-.09l5.51-2.35c.55-.21.55-.56.04-.78zm-6.74 8.3c0 .8-2.29 3.46-7.34 3.46-4.67 0-7.34-2.72-7.34-3.46v-4.64l6.42 2.74a2.7 2.7 0 0 0 1.84 0l6.42-2.74zm-6.91-3.06a1.53 1.53 0 0 1-.86 0L4.19 12.39l11.38-4.85a.92.92 0 0 1 .86 0c.26.13 11.38 4.85 11.38 4.85z"/></symbol>

<symbol id="icon-grid" viewBox="0 0 32 32"><title>grid</title><path d="M8.86 9.57H1.71A.71.71 0 0 1 1 8.86V1.71A.71.71 0 0 1 1.71 1h7.15a.71.71 0 0 1 .71.71v7.15a.71.71 0 0 1-.71.71zM2.43 8.14h5.71V2.43H2.43zm17.14 1.43h-7.14a.71.71 0 0 1-.71-.71V1.71a.71.71 0 0 1 .71-.71h7.14a.71.71 0 0 1 .71.71v7.15a.71.71 0 0 1-.71.71zm-6.43-1.43h5.71V2.43h-5.71zm17.15 1.43h-7.15a.71.71 0 0 1-.71-.71V1.71a.71.71 0 0 1 .71-.71h7.14a.71.71 0 0 1 .71.71v7.15a.71.71 0 0 1-.7.71zm-6.43-1.43h5.71V2.43h-5.71zm-15 12.14H1.71a.71.71 0 0 1-.71-.71v-7.14a.71.71 0 0 1 .71-.71h7.15a.71.71 0 0 1 .71.71v7.14a.71.71 0 0 1-.71.72zm-6.43-1.42h5.71v-5.72H2.43zm17.14 1.43h-7.14a.71.71 0 0 1-.71-.71v-7.15a.71.71 0 0 1 .71-.71h7.14a.71.71 0 0 1 .71.71v7.14a.71.71 0 0 1-.71.72zm-6.43-1.43h5.71v-5.72h-5.71zm17.14 1.43h-7.14a.71.71 0 0 1-.71-.71v-7.15a.71.71 0 0 1 .71-.71h7.14a.71.71 0 0 1 .71.71v7.14a.71.71 0 0 1-.7.72zm-6.43-1.43h5.71v-5.72h-5.7zM8.86 31H1.71a.71.71 0 0 1-.71-.71v-7.15a.71.71 0 0 1 .71-.71h7.15a.71.71 0 0 1 .71.71v7.14a.71.71 0 0 1-.71.72zm-6.43-1.43h5.71v-5.71H2.43zM19.57 31h-7.14a.71.71 0 0 1-.71-.71v-7.15a.71.71 0 0 1 .71-.71h7.14a.71.71 0 0 1 .71.71v7.14a.71.71 0 0 1-.71.72zm-6.43-1.43h5.71v-5.71h-5.71zM30.29 31h-7.15a.71.71 0 0 1-.71-.71v-7.15a.71.71 0 0 1 .71-.71h7.14a.71.71 0 0 1 .71.71v7.14a.71.71 0 0 1-.7.72zm-6.43-1.43h5.71v-5.71h-5.71z"/></symbol>

<symbol id="icon-group" viewBox="0 0 32 32"><title>group</title><path d="M8.92 17.49v-1.32H8a38.7 38.7 0 0 1-5.6-.38 5.24 5.24 0 0 1 3.7-4.44h3.7a6.89 6.89 0 0 1 .61-.9A3.89 3.89 0 0 0 12 7.34V5.39a3.91 3.91 0 0 0-3.91-3.9h-.18A3.91 3.91 0 0 0 4 5.39v1.95a3.88 3.88 0 0 0 1.33 2.91A6.69 6.69 0 0 0 1 16.91a36.76 36.76 0 0 0 7 .6zM5.33 7.34V5.39a2.58 2.58 0 0 1 2.58-2.58h.19a2.58 2.58 0 0 1 2.58 2.58v1.95a2.58 2.58 0 0 1-2.59 2.58h-.18a2.58 2.58 0 0 1-2.58-2.58zm16.27 3.13a6.89 6.89 0 0 1 .61.9h3.7a5.24 5.24 0 0 1 3.7 4.44 38.68 38.68 0 0 1-5.6.38h-.92v1.32H24a36.76 36.76 0 0 0 7-.6 6.69 6.69 0 0 0-4.33-6.66A3.88 3.88 0 0 0 28 7.34V5.39a3.91 3.91 0 0 0-3.91-3.91h-.19A3.91 3.91 0 0 0 20 5.39v1.95a3.89 3.89 0 0 0 1.59 3.13zm-.27-5.08a2.58 2.58 0 0 1 2.58-2.58h.19a2.58 2.58 0 0 1 2.58 2.58v1.95a2.58 2.58 0 0 1-2.58 2.58h-.19a2.58 2.58 0 0 1-2.58-2.58zm-.66 15.45a5.58 5.58 0 0 0 1.09-3.31v-2.8a5.62 5.62 0 0 0-5.62-5.62h-.27a5.62 5.62 0 0 0-5.62 5.62v2.8a5.58 5.58 0 0 0 1.09 3.31A11.37 11.37 0 0 0 5 30.15 63.53 63.53 0 0 0 16 31a63.52 63.52 0 0 0 11-.85 11.37 11.37 0 0 0-6.34-9.3zm-9.09-6.11a4.3 4.3 0 0 1 4.29-4.29h.27a4.3 4.3 0 0 1 4.29 4.29v2.8a4.3 4.3 0 0 1-4.29 4.29h-.27a4.3 4.3 0 0 1-4.29-4.29zM16 29.67a66.47 66.47 0 0 1-9.49-.62 9.89 9.89 0 0 1 5.28-7c.13 0 .37-.06.69-.1a5.58 5.58 0 0 0 3.39 1.15h.27a5.58 5.58 0 0 0 3.41-1.1 5.86 5.86 0 0 1 .66.11 9.89 9.89 0 0 1 5.28 7 66.45 66.45 0 0 1-9.49.56z"/></symbol>

<symbol id="icon-heart" viewBox="0 0 32 32"><title>heart</title><path d="M16 29.3L3.4 16.71a8 8 0 0 1-1.75-2.63A8 8 0 0 1 1 11a7.89 7.89 0 0 1 1.13-4 8 8 0 0 1 10-3.41 7.93 7.93 0 0 1 2.63 1.76L16 6.58l1.23-1.23A8 8 0 0 1 22.91 3a7.9 7.9 0 0 1 4 1.08A8 8 0 0 1 29.87 7 7.89 7.89 0 0 1 31 11a8.05 8.05 0 0 1-.6 3 7.94 7.94 0 0 1-1.75 2.63zM9.09 4.39a6.52 6.52 0 0 0-3.33.89A6.65 6.65 0 0 0 3.34 7.7a6.51 6.51 0 0 0-.89 3.3 6.64 6.64 0 0 0 .5 2.52 6.55 6.55 0 0 0 1.45 2.17L16 27.32l11.61-11.6a6.54 6.54 0 0 0 1.45-2.17 6.66 6.66 0 0 0 .5-2.52 6.51 6.51 0 0 0-.89-3.33 6.65 6.65 0 0 0-2.42-2.42 6.52 6.52 0 0 0-3.33-.89 6.64 6.64 0 0 0-2.51.5 6.55 6.55 0 0 0-2.17 1.45L16 8.56l-2.22-2.23a6.54 6.54 0 0 0-2.17-1.45 6.68 6.68 0 0 0-2.52-.49z"/></symbol>

<symbol id="icon-home" viewBox="0 0 32 32"><title>home</title><path d="M30.62 16.55a.7.7 0 0 1-1 0L16 4.26 2.37 16.6a.7.7 0 1 1-.95-1L15.53 2.79a.7.7 0 0 1 .95 0l14.1 12.77a.7.7 0 0 1 .04.99zm-4-1a.71.71 0 0 1 .24.53v12.61a.7.7 0 0 1-.7.7H5.83a.7.7 0 0 1-.7-.7V16.08a.71.71 0 0 1 .24-.53l10.15-9a.71.71 0 0 1 .94 0zm-1.17.84L16 8l-9.45 8.4V28h18.91z"/></symbol>

<symbol id="icon-idea" viewBox="0 0 32 32"><title>idea</title><path d="M23.49 18.79a10.48 10.48 0 1 0-15.07-.08 8.86 8.86 0 0 1 2.86 4.81l.3.9h-.47a.71.71 0 0 0 0 1.43h.64v2.04a.71.71 0 0 0 0 .14l1 2.48a.71.71 0 0 0 .66.45h5a.71.71 0 0 0 .66-.45l1-2.48a.71.71 0 0 0 0-.14v-.05-1.98h.64a.71.71 0 0 0 0-1.43h-.31l.28-.87c.83-2.62.88-2.78 2.81-4.77zm-14-1.07A9 9 0 0 1 7 10.8a9 9 0 1 1 15.5 7 9.58 9.58 0 0 0-3.16 5.33l-.42 1.3h-2.21V15a3.23 3.23 0 1 0-1.43 0v9.43H13.1l-.46-1.36a10.14 10.14 0 0 0-3.18-5.34zm9.36 9.35h-5.67v-1.21h5.63zM16 13.65a1.8 1.8 0 1 1 1.8-1.8 1.81 1.81 0 0 1-1.8 1.8zm2 15.92h-4l-.43-1.06h4.94z"/></symbol>

<symbol id="icon-incoming" viewBox="0 0 32 32"><title>incoming</title><path d="M26.51 24.05v5.88a.7.7 0 0 1-.7.7H6.2a.7.7 0 0 1-.7-.7v-5.88a.7.7 0 1 1 1.41 0v5.18H25.1v-5.18a.7.7 0 0 1 1.41 0zM15.35 22.9a.7.7 0 0 0 .61.36.7.7 0 0 0 .5-.21l2.82-2.82a.7.7 0 1 0-1-1l-1.62 1.67V2.06a.7.7 0 1 0-1.41 0v18.76l-1.58-1.58a.7.7 0 1 0-1 1z"/></symbol>

<symbol id="icon-instagram" viewBox="0 0 32 32"><title>instagram</title><path d="M16 7c2.94 0 3.29 0 4.44.06a6.09 6.09 0 0 1 2 .38 3.64 3.64 0 0 1 2.09 2.09 6.09 6.09 0 0 1 .38 2C25 12.71 25 13.06 25 16s0 3.29-.06 4.44a6.09 6.09 0 0 1-.38 2 3.64 3.64 0 0 1-2.09 2.09 6.09 6.09 0 0 1-2 .38C19.29 25 18.94 25 16 25s-3.29 0-4.44-.06a6.09 6.09 0 0 1-2-.38 3.64 3.64 0 0 1-2.09-2.09 6.09 6.09 0 0 1-.38-2C7 19.29 7 18.94 7 16s0-3.29.06-4.44a6.09 6.09 0 0 1 .38-2 3.64 3.64 0 0 1 2.07-2.14 6.09 6.09 0 0 1 2-.38C12.71 7 13.06 7 16 7m0-2c-3 0-3.36 0-4.54.07a8.07 8.07 0 0 0-2.67.51 5.62 5.62 0 0 0-3.21 3.21 8.07 8.07 0 0 0-.51 2.67C5 12.64 5 13 5 16s0 3.36.07 4.54a8.07 8.07 0 0 0 .51 2.67 5.62 5.62 0 0 0 3.22 3.22 8.07 8.07 0 0 0 2.67.51C12.64 27 13 27 16 27s3.36 0 4.54-.07a8.07 8.07 0 0 0 2.67-.51 5.62 5.62 0 0 0 3.22-3.22 8.07 8.07 0 0 0 .51-2.67C27 19.36 27 19 27 16s0-3.36-.07-4.54a8.07 8.07 0 0 0-.51-2.67 5.62 5.62 0 0 0-3.22-3.22 8.07 8.07 0 0 0-2.67-.51C19.36 5 19 5 16 5zm0 5.35A5.65 5.65 0 1 0 21.65 16 5.65 5.65 0 0 0 16 10.35zm0 9.32A3.67 3.67 0 1 1 19.67 16 3.67 3.67 0 0 1 16 19.67zm5.87-10.86a1.32 1.32 0 1 0 1.32 1.32 1.32 1.32 0 0 0-1.32-1.32z"/></symbol>

<symbol id="icon-institution" viewBox="0 0 32 32"><title>institution</title><path d="M30.4 30H1.6a.63.63 0 0 1 0-1.25h28.8a.63.63 0 0 1 0 1.25zM29 27.13a.63.63 0 0 0-.64-.62H3.64a.63.63 0 1 0 0 1.25h24.72a.63.63 0 0 0 .64-.63zM7.25 13.5H6v12h1.25zm6.25 0h-1.25v12h1.25zm6.25 0H18.5v12h1.25zm6.25 0h-1.25v12H26zm3-1.62a.63.63 0 0 0-.64-.62H3.64a.63.63 0 1 0 0 1.25h24.72a.63.63 0 0 0 .64-.63zm2-2.12a.63.63 0 0 0-.34-.7l-14.4-7.75a.58.58 0 0 0-.5 0L1.35 9.06a.63.63 0 0 0-.34.7.61.61 0 0 0 .59.49h28.8a.61.61 0 0 0 .6-.49zm-15-7.2L27.67 9H4.34z"/></symbol>

<symbol id="icon-join" viewBox="0 0 32 32"><title>join</title><path d="M22.15 16.9a7.57 7.57 0 0 0 1.47-4.49V9A7.62 7.62 0 0 0 8.79 6.49h1.33A6.37 6.37 0 0 1 22.38 9v3.46a6.38 6.38 0 0 1-12.75 0v-2H8.38v2a7.57 7.57 0 0 0 1.47 4.44A14.24 14.24 0 0 0 1 30v.63h30V30a14.24 14.24 0 0 0-8.85-13.1zM2.27 29.38a13 13 0 0 1 8.45-11.48 7.59 7.59 0 0 0 10.56 0 13 13 0 0 1 8.45 11.47zm-.8-20.94a.7.7 0 0 1 .7-.7h3.29V4.46a.7.7 0 1 1 1.41 0v3.28h3.28a.7.7 0 1 1 0 1.41H6.87v3.28a.7.7 0 1 1-1.41 0V9.15H2.17a.7.7 0 0 1-.7-.71z"/></symbol>

<symbol id="icon-learn" viewBox="0 0 32 32"><title>learn</title><path d="M16 30.91l-.45-.43A17.2 17.2 0 0 0 3.73 25.8h-.67V9.52h.66A18.51 18.51 0 0 1 16 14.08a18.51 18.51 0 0 1 12.27-4.56h.66V25.8h-.66a17.19 17.19 0 0 0-11.82 4.68zM4.39 24.49A18.5 18.5 0 0 1 16 29.1a18.49 18.49 0 0 1 11.61-4.61V10.86a17.13 17.13 0 0 0-11.16 4.6l-.45.43-.45-.43a17.13 17.13 0 0 0-11.16-4.6zM16 10.84a4.75 4.75 0 1 1 4.75-4.75A4.76 4.76 0 0 1 16 10.84zm0-8.18a3.48 3.48 0 0 0-3.43 3.43 3.43 3.43 0 0 0 6.86 0A3.48 3.48 0 0 0 16 2.66z"/></symbol>

<symbol id="icon-link" viewBox="0 0 32 32"><title>link</title><path d="M10.76 30.87h-.29zM9.65 31H10zm1.68-.27h.2zM29.71 12a7.47 7.47 0 0 0 0-5.65 7.51 7.51 0 0 0-4.06-4.06 7.49 7.49 0 0 0-2.83-.55h-.21a7.46 7.46 0 0 0-2.61.55 7.34 7.34 0 0 0-2.43 1.62l-5.2 5.2a3.9 3.9 0 0 1 1.75 0l4.32-4.35a6.12 6.12 0 0 1 2-1.36 6.24 6.24 0 0 1 4.7 0 6.24 6.24 0 0 1 3.4 3.4 6.24 6.24 0 0 1 0 4.7 6.12 6.12 0 0 1-1.36 2l-4.1 4.1a6.12 6.12 0 0 1-2 1.36 6.25 6.25 0 0 1-2.35.46 6.14 6.14 0 0 1-3.24-.91 9.87 9.87 0 0 1-2.63-3.06h-.34a1.9 1.9 0 0 0-1 .25 10.1 10.1 0 0 0 1.92 2.79 7.43 7.43 0 0 0 5.26 2.18 7.44 7.44 0 0 0 4.94-1.88l.32-.3 4.1-4.1A7.34 7.34 0 0 0 29.71 12zM19.33 23.17a5.35 5.35 0 0 1-1.59-.17l-4.18 4.2a6.12 6.12 0 0 1-2 1.36 6.24 6.24 0 0 1-4.7 0 6.24 6.24 0 0 1-3.4-3.4 6.24 6.24 0 0 1 0-4.7 6.12 6.12 0 0 1 1.36-2l4.1-4.1a6.12 6.12 0 0 1 2-1.36 6.25 6.25 0 0 1 2.35-.46 6.14 6.14 0 0 1 3.24.91 6.3 6.3 0 0 1 1.89 1.79h.34a1.9 1.9 0 0 0 1-.25 7.39 7.39 0 0 0-1.18-1.53 7.43 7.43 0 0 0-5.12-2.18h-.14a7.44 7.44 0 0 0-4.94 1.88l-.32.3-4.1 4.1A7.29 7.29 0 0 0 2.29 20a7.51 7.51 0 0 0 0 5.65 7.49 7.49 0 0 0 4.06 4.06 7.47 7.47 0 0 0 5.65 0 7.34 7.34 0 0 0 2.43-1.63zM22.39 1H22zm-1.92.32l.3-.08zm1.09-.24h-.32z"/></symbol>

<symbol id="icon-linkedin" viewBox="0 0 32 32"><title>linkedin</title><path d="M10.67 8.46a2.12 2.12 0 0 1-.67 1.63 2.53 2.53 0 0 1-1.81.66 2.42 2.42 0 0 1-1.77-.66 2.2 2.2 0 0 1-.67-1.63 2.16 2.16 0 0 1 .65-1.64 2.52 2.52 0 0 1 1.8-.65 2.45 2.45 0 0 1 1.8.65 2.23 2.23 0 0 1 .67 1.64zm-.28 4.1v13.27H6V12.56zm15.9 5.67v7.61h-4.41v-7.1a3.88 3.88 0 0 0-.54-2.2 1.91 1.91 0 0 0-1.69-.8 2.17 2.17 0 0 0-1.41.46 2.84 2.84 0 0 0-.85 1.15 3.22 3.22 0 0 0-.15 1.08v7.41h-4.41v-8.67-4.64h4.41v1.93a5.92 5.92 0 0 1 .55-.75 5.71 5.71 0 0 1 .76-.7 3.48 3.48 0 0 1 1.17-.58 5.3 5.3 0 0 1 1.53-.21 4.76 4.76 0 0 1 3.68 1.52 6.37 6.37 0 0 1 1.36 4.48z"/></symbol>

<symbol id="icon-location" viewBox="0 0 32 32"><title>location</title><path d="M21.28 10.8A5.28 5.28 0 1 0 16 16.08a5.29 5.29 0 0 0 5.28-5.28zm-9.15 0A3.87 3.87 0 1 1 16 14.67a3.88 3.88 0 0 1-3.87-3.87zm3.32 16.38a.71.71 0 0 0 1.1 0S18.81 24.34 21 21c3-4.6 4.55-8 4.55-10.21a9.58 9.58 0 0 0-19.15 0C6.42 12.94 8 16.37 11 21c2.19 3.34 4.43 6.15 4.45 6.18zM16 2.6a8.18 8.18 0 0 1 8.17 8.17c0 3.55-5.46 11.34-8.17 14.83-2.71-3.5-8.17-11.28-8.17-14.83A8.18 8.18 0 0 1 16 2.6zm14.7 27.88a.71.71 0 0 1-.6.33H1.9a.7.7 0 0 1-.63-1l4.23-8.48a.71.71 0 0 1 .63-.39h2.76a.7.7 0 1 1 0 1.41H6.57L3 29.4h26l-3.52-7h-2.37a.7.7 0 1 1 0-1.41h2.76a.71.71 0 0 1 .63.39l4.23 8.46a.71.71 0 0 1-.03.64z"/></symbol>

<symbol id="icon-locked" viewBox="0 0 32 32"><title>locked</title><path d="M25.87 14h-2.12V9.24a7.75 7.75 0 0 0-15.51 0V14H6.13a.7.7 0 0 0-.7.7v15.6a.7.7 0 0 0 .7.7h19.74a.7.7 0 0 0 .7-.7V14.7a.7.7 0 0 0-.7-.7zM9.66 9.24a6.34 6.34 0 0 1 12.69 0V14H9.66zm15.5 20.26H6.84v-14h18.32zM15.93 18a2.47 2.47 0 0 0-1.73 4.14v2.62a1.81 1.81 0 0 0 3.61 0v-2.61A2.47 2.47 0 0 0 15.93 18zm.73 3.29a.7.7 0 0 0-.26.55v2.92a.4.4 0 0 1-.79 0v-2.92a.71.71 0 0 0-.26-.55 1.05 1.05 0 0 1-.4-.87 1.07 1.07 0 0 1 1-1 1.06 1.06 0 0 1 .66 1.88z"/></symbol>

<symbol id="icon-lodging" viewBox="0 0 32 32"><title>lodging</title><path d="M30.66 29.16h-3.88v-3.81H5.22v3.81H1.34V8.77h3.88v11.44h8.86v-8.93h10.8a5.79 5.79 0 0 1 5.79 5.79zm-2.56-1.32h1.24V17.06a4.52 4.52 0 0 0-4.46-4.46h-9.47v8.94H3.9V10.1H2.66v17.74H3.9V24h24.2zM9.63 20.07a4.32 4.32 0 1 1 4.32-4.32 4.32 4.32 0 0 1-4.32 4.32zm0-7.31a3 3 0 1 0 3 3 3 3 0 0 0-3-3z"/></symbol>

<symbol id="icon-map" viewBox="0 0 32 32"><title>map</title><path d="M30.59 1.33a.71.71 0 0 0-.64-.09l-9.22 3.23-9.22-3.23H11L1.58 4.55a.71.71 0 0 0-.47.67V30.1a.71.71 0 0 0 .94.67l9.22-3.24 9.22 3.24h.44l9.45-3.32a.71.71 0 0 0 .47-.67V1.9a.7.7 0 0 0-.26-.57zM2.52 5.72l8-2.82v23.38l-8 2.82zM12 2.9l8 2.82V29.1l-8-2.82zm17.5 23.39l-8 2.82V5.72l8-2.82z"/></symbol>

<symbol id="icon-marker" viewBox="0 0 32 32"><title>marker</title><path d="M16 17.91A5.9 5.9 0 1 1 21.9 12a5.91 5.91 0 0 1-5.9 5.91zm0-10.39A4.49 4.49 0 1 0 20.49 12 4.49 4.49 0 0 0 16 7.52zm0 23.28a.71.71 0 0 1-.55-.26C15 30 5.22 17.72 5.22 12a10.78 10.78 0 1 1 21.55 0c0 5.74-9.81 18-10.23 18.57a.71.71 0 0 1-.54.23zm0-28.2A9.38 9.38 0 0 0 6.63 12c0 4.52 7.28 14.28 9.37 17 2.08-2.7 9.37-12.46 9.37-17A9.38 9.38 0 0 0 16 2.61z"/></symbol>

<symbol id="icon-menu" viewBox="0 0 32 32"><title>menu</title><path d="M29.52 9.7h-27C2.22 9.7 2 9.39 2 9s.22-.7.48-.7h27c.27 0 .48.31.48.7s-.18.7-.44.7zm.48 6c0-.39-.22-.7-.48-.7h-27c-.27 0-.48.31-.48.7s.22.7.48.7h27c.26-.05.48-.4.48-.75zm0 6.65a.66.66 0 0 0-.61-.7H2.61a.71.71 0 0 0 0 1.4h26.78a.66.66 0 0 0 .61-.75z"/></symbol>

<symbol id="icon-microphone" viewBox="0 0 32 32"><title>microphone</title><path d="M16 25.24a6.37 6.37 0 0 0 6.36-6.36V7.56a6.36 6.36 0 0 0-12.73 0v11.32A6.37 6.37 0 0 0 16 25.24zm0-22.63a5 5 0 0 1 5 5v5H11v-5a5 5 0 0 1 5-5zm-5 11.31h10v5a5 5 0 0 1-9.91 0zm5.66 14v1.48h5a.7.7 0 0 1 0 1.41H10.34a.7.7 0 0 1 0-1.41h5v-1.49a8.74 8.74 0 0 1-8-8.7v-6a.7.7 0 1 1 1.41 0v6a7.32 7.32 0 0 0 14.64 0v-6a.7.7 0 0 1 1.41 0v6a8.74 8.74 0 0 1-8.1 8.7z"/></symbol>

<symbol id="icon-minus-circle" viewBox="0 0 32 32"><title>minus circle</title><path d="M23.7 16a.7.7 0 0 1-.7.7H9a.7.7 0 1 1 0-1.4h14a.7.7 0 0 1 .7.7zm6.8 0A14.5 14.5 0 1 1 16 1.5 14.5 14.5 0 0 1 30.5 16zm-1.4 0A13.1 13.1 0 1 0 16 29.1 13.11 13.11 0 0 0 29.1 16z"/></symbol>

<symbol id="icon-moon" viewBox="0 0 32 32"><title>moon</title><path d="M26.74 18.15A12.86 12.86 0 0 1 14.58 1 15 15 0 1 0 31 17.42a12.84 12.84 0 0 1-4.26.73zM16 29.63a13.64 13.64 0 0 1-3.32-26.86 14 14 0 0 0-.22 2.49 14.3 14.3 0 0 0 14.28 14.29 14 14 0 0 0 2.49-.22A13.56 13.56 0 0 1 16 29.63z"/></symbol>

<symbol id="icon-network" viewBox="0 0 32 32"><title>network</title><path d="M16 1.2A14.8 14.8 0 1 0 30.8 16 14.82 14.82 0 0 0 16 1.2zm11 22.38a19.21 19.21 0 0 0-3.29-1.82 18.84 18.84 0 0 0 .88-5.06h4.76A13.31 13.31 0 0 1 27 23.58zm-10 5.77h-.32v-7.72a17.79 17.79 0 0 1 5.25 1A17.42 17.42 0 0 1 17 29.35zm-2.06 0a17.42 17.42 0 0 1-4.88-6.68 17.74 17.74 0 0 1 5.21-1v7.73zM2.62 16.7h4.76a18.84 18.84 0 0 0 .91 5.17 19.23 19.23 0 0 0-3.23 1.84 13.31 13.31 0 0 1-2.44-7.01zm2.44-8.42a19.23 19.23 0 0 0 3.24 1.85 18.84 18.84 0 0 0-.93 5.17H2.62a13.31 13.31 0 0 1 2.44-7.02zM15 2.64h.26v7.73a17.74 17.74 0 0 1-5.19-1A17.42 17.42 0 0 1 15 2.64zm1.94 0a17.42 17.42 0 0 1 5 6.78 17.79 17.79 0 0 1-5.23.95V2.62zm-.26 9.13a19.2 19.2 0 0 0 5.7-1 17.44 17.44 0 0 1 .8 4.55H16.7zm-1.41 0v3.53H8.79a17.43 17.43 0 0 1 .83-4.64 19.15 19.15 0 0 0 5.68 1.11zM8.79 16.7h6.5v3.52a19.15 19.15 0 0 0-5.69 1.12 17.43 17.43 0 0 1-.81-4.64zm7.91 3.52V16.7h6.5a17.43 17.43 0 0 1-.79 4.55 19.2 19.2 0 0 0-5.71-1.03zm7.91-4.93a18.84 18.84 0 0 0-.89-5.05A19.21 19.21 0 0 0 27 8.42a13.31 13.31 0 0 1 2.34 6.87zm1.56-8a17.79 17.79 0 0 1-2.92 1.61 18.77 18.77 0 0 0-3.78-5.85 13.42 13.42 0 0 1 6.7 4.25zM12.53 3.06A18.77 18.77 0 0 0 8.8 8.8a17.81 17.81 0 0 1-2.86-1.63 13.41 13.41 0 0 1 6.59-4.11zM5.94 24.83a17.81 17.81 0 0 1 2.84-1.62 18.78 18.78 0 0 0 3.69 5.71 13.41 13.41 0 0 1-6.53-4.09zm13.59 4.09a18.78 18.78 0 0 0 3.74-5.82 17.8 17.8 0 0 1 2.91 1.6 13.42 13.42 0 0 1-6.65 4.22z"/></symbol>

<symbol id="icon-new-window" viewBox="0 0 32 32"><title>new window</title><path d="M30.1 1.2H11.77a.7.7 0 0 0-.7.7v9.16H1.9a.7.7 0 0 0-.7.7V30.1a.7.7 0 0 0 .7.7h18.33a.7.7 0 0 0 .7-.7v-9.17h9.17a.7.7 0 0 0 .7-.7V1.9a.7.7 0 0 0-.7-.7zM19.52 29.39H2.61V12.48h8.46v7.75a.7.7 0 0 0 .7.7h7.75zm9.87-9.87H12.48V2.61h16.91z"/></symbol>

<symbol id="icon-outgoing" viewBox="0 0 32 32"><title>outgoing</title><path d="M26.51 24.05v5.88a.7.7 0 0 1-.7.7H6.2a.7.7 0 0 1-.7-.7v-5.88a.7.7 0 0 1 1.41 0v5.18H25.1v-5.18a.7.7 0 0 1 1.41 0zM13.68 5.38l1.66-1.66v18.84a.7.7 0 0 0 1.41 0V3.81l1.58 1.58a.7.7 0 1 0 1-1l-2.68-2.67a.7.7 0 0 0-.65-.36.7.7 0 0 0-.52.2l-2.8 2.83a.7.7 0 0 0 1 1z"/></symbol>

<symbol id="icon-park" viewBox="0 0 32 32"><title>park</title><path d="M28.57 29l-1.64-2.29h3.57v-1.37H26l-1.2-1.68h2.7v-1.32h-10v1.32h2.71L19 25.34h-4.5v1.32h3.57L16.43 29h-4.12v-8.52a9.14 9.14 0 1 0-3.71-.08V29H1v1.32h8.92v-11l-.55-.09a7.82 7.82 0 1 1 2.19.05l-.58.07v11H31V29zm-6.73-5.29h1.32l1.19 1.68h-3.69zm-2.11 3h5.56L26.91 29h-8.8z"/></symbol>

<symbol id="icon-person" viewBox="0 0 32 32"><title>person</title><path d="M22.36 16.76a7.71 7.71 0 0 0 1.39-4.42V8.93a7.75 7.75 0 1 0-15.51 0v3.4a7.71 7.71 0 0 0 1.39 4.42A14.73 14.73 0 0 0 1.2 30.12a.7.7 0 0 0 .7.7h28.2a.7.7 0 0 0 .7-.7 14.73 14.73 0 0 0-8.44-13.36zM9.66 8.93a6.34 6.34 0 1 1 12.69 0v3.4a6.34 6.34 0 0 1-2.51 5h-.06l-.16.11-.11.08-.13.08-.16.1-.1.06-.2.11h-.07l-.24.12-.28.12a6.34 6.34 0 0 1-1.6.39h-1.35a6.35 6.35 0 0 1-1.61-.39l-.29-.12-.34.01h-.06l-.21-.11-.09-.05-.17-.1-.12-.08-.12-.08-.15-.11-.07-.05a6.34 6.34 0 0 1-2.5-5zm-7 20.48a13.33 13.33 0 0 1 8-11.54 7.76 7.76 0 0 0 .76.65l.23.16.09.06.19.12.07.14.14.08.2.11h.09l.26.13a7.69 7.69 0 0 0 2.11.63h2.24a7.68 7.68 0 0 0 1.8-.49l.31-.14.26-.13h.09l.2-.11.3-.08.14-.09.19-.12.08-.06.24-.17a7.75 7.75 0 0 0 .77-.66 13.33 13.33 0 0 1 8 11.54z"/></symbol>

<symbol id="icon-phone" viewBox="0 0 32 32"><title>phone</title><path d="M26 27.35l-.5.37c-3.37 2.5-7.27 2.16-9.47-.81L5.92 13.21c-2.2-3-1.38-6.8 2-9.29l.5-.37a3.19 3.19 0 0 1 4.45.67l1.75 2.36a3.19 3.19 0 0 1-.67 4.42l-.73.54a.65.65 0 0 0-.14.91l5.77 7.8a.65.65 0 0 0 .91.14l.73-.54a3.19 3.19 0 0 1 4.45.67l1.75 2.36a3.19 3.19 0 0 1-.69 4.47zM8.75 5.05C6.46 6.75 5 9.67 7 12.38l10.14 13.7c2 2.71 5.21 2.21 7.5.52l.5-.37a1.77 1.77 0 0 0 .37-2.48l-1.75-2.36a1.77 1.77 0 0 0-2.43-.39l-.73.54a2.06 2.06 0 0 1-2.88-.43L12 13.31a2.06 2.06 0 0 1 .43-2.88l.73-.54a1.77 1.77 0 0 0 .37-2.48l-1.8-2.36a1.77 1.77 0 0 0-2.48-.37z"/></symbol>

<symbol id="icon-photo" viewBox="0 0 32 32"><title>photo</title><path d="M29 1H3a2 2 0 0 0-2 2v26a2 2 0 0 0 2 2h26a2 2 0 0 0 2-2V3a2 2 0 0 0-2-2zM2.32 29V3A.68.68 0 0 1 3 2.32h26a.68.68 0 0 1 .68.67v19.12l-8-8.3L5.1 29.67H3a.68.68 0 0 1-.68-.67zm26.68.67H7l14.58-14L29.67 24v5a.68.68 0 0 1-.67.67zM11 16a5 5 0 1 0-5-5 5 5 0 0 0 5 5zm0-8.67A3.67 3.67 0 1 1 7.33 11 3.68 3.68 0 0 1 11 7.33z"/></symbol>

<symbol id="icon-pinterest" viewBox="0 0 32 32"><title>pinterest</title><path d="M25.77 10.33A11 11 0 0 1 27.29 16a11 11 0 0 1-1.51 5.67 11.23 11.23 0 0 1-4.11 4.11 11.29 11.29 0 0 1-8.87 1 9.08 9.08 0 0 0 1.15-2.41q.13-.5.79-3.1a2.45 2.45 0 0 0 1.07 1 3.49 3.49 0 0 0 1.68.42 5.29 5.29 0 0 0 3.17-1 6.53 6.53 0 0 0 2.16-2.77 9.89 9.89 0 0 0 .76-4 6.05 6.05 0 0 0-.87-3.14 6.62 6.62 0 0 0-2.54-2.39 7.56 7.56 0 0 0-3.75-.93 9.41 9.41 0 0 0-2.88.43 7.52 7.52 0 0 0-2.27 1.13 7.71 7.71 0 0 0-1.6 1.62 6.68 6.68 0 0 0-1 1.9 6.4 6.4 0 0 0-.32 2A5.88 5.88 0 0 0 9 18.25a3.32 3.32 0 0 0 1.72 1.63c.29.12.48 0 .56-.29l.12-.46c.06-.23.1-.38.12-.44a.67.67 0 0 0-.16-.63 3.34 3.34 0 0 1-.75-2.22 5.35 5.35 0 0 1 5.55-5.41 4.76 4.76 0 0 1 3.46 1.21 4.17 4.17 0 0 1 1.24 3.13 8.38 8.38 0 0 1-1 4.25 3 3 0 0 1-2.58 1.75 1.8 1.8 0 0 1-1.44-.64 1.67 1.67 0 0 1-.34-1.54q.12-.51.39-1.37t.44-1.51a4.57 4.57 0 0 0 .17-1.11 1.86 1.86 0 0 0-.4-1.22 1.38 1.38 0 0 0-1.13-.48 1.88 1.88 0 0 0-1.54.84 3.37 3.37 0 0 0-.63 2.09 3.92 3.92 0 0 0 .37 1.79l-1.46 6.14a9.69 9.69 0 0 0-.19 2.6 11.25 11.25 0 0 1-4.89-4.13A10.93 10.93 0 0 1 4.71 16a11 11 0 0 1 1.51-5.67 11.23 11.23 0 0 1 4.11-4.11A11 11 0 0 1 16 4.72a11 11 0 0 1 5.66 1.51 11.25 11.25 0 0 1 4.11 4.1z"/></symbol>

<symbol id="icon-plus-circle" viewBox="0 0 32 32"><title>plus circle</title><path d="M23.7 16a.7.7 0 0 1-.7.7h-6.3V23a.7.7 0 0 1-1.4 0v-6.3H9a.7.7 0 1 1 0-1.4h6.3V9a.7.7 0 1 1 1.4 0v6.3H23a.7.7 0 0 1 .7.7zm6.8 0A14.5 14.5 0 1 1 16 1.5 14.5 14.5 0 0 1 30.5 16zm-1.4 0A13.1 13.1 0 1 0 16 29.1 13.11 13.11 0 0 0 29.1 16z"/></symbol>

<symbol id="icon-plus-square" viewBox="0 0 32 32"><title>plus square</title><path d="M23.7 16a.7.7 0 0 1-.7.7h-6.3V23a.7.7 0 0 1-1.4 0v-6.3H9a.7.7 0 1 1 0-1.4h6.3V9a.7.7 0 1 1 1.4 0v6.3H23a.7.7 0 0 1 .7.7zM31 3v26a2 2 0 0 1-2 2H3a2 2 0 0 1-2-2V3a2 2 0 0 1 2-2h26a2 2 0 0 1 2 2zm-1.33 0a.68.68 0 0 0-.67-.67H3a.68.68 0 0 0-.67.67v26a.68.68 0 0 0 .67.67h26a.68.68 0 0 0 .67-.67z"/></symbol>

<symbol id="icon-print" viewBox="0 0 32 32"><title>print</title><path d="M30.1 10h-5.32V2.16a.7.7 0 0 0-.7-.7H7.93a.7.7 0 0 0-.7.7V10H1.9a.7.7 0 0 0-.7.7v13.8a.7.7 0 0 0 .7.7h5.32v4.63a.7.7 0 0 0 .7.7h16.15a.7.7 0 0 0 .7-.7v-4.62h5.33a.7.7 0 0 0 .7-.7V10.7a.7.7 0 0 0-.7-.7zM8.63 2.86h14.74v7.06H8.63zm14.74 26.28H8.63v-8.76h14.74zm6-5.33h-4.59v-4.13a.7.7 0 0 0-.7-.7H7.93a.7.7 0 0 0-.7.7v4.12H2.61V11.41h26.78zm-19.31-.64a.7.7 0 0 1 .7-.7h10.45a.7.7 0 0 1 0 1.41H10.79a.7.7 0 0 1-.71-.72zm0 3.19a.7.7 0 0 1 .7-.7h10.45a.7.7 0 0 1 0 1.41H10.79a.7.7 0 0 1-.71-.71z"/></symbol>

<symbol id="icon-protection" viewBox="0 0 32 32"><title>protection</title><path d="M28.12 5.12l-12-3.48a.71.71 0 0 0-.4 0L3.88 5.12a.7.7 0 0 0-.51.67 56.77 56.77 0 0 0 .72 8.51c1 6.22 2.84 10.73 5.47 13.38a8.86 8.86 0 0 0 12.78 0C25 25 26.84 20.52 27.87 14.3a56.85 56.85 0 0 0 .76-8.51.71.71 0 0 0-.51-.67zm-6.78 21.56a7.45 7.45 0 0 1-10.78 0C5.37 21.45 4.84 9 4.79 6.32L15.94 3l11.27 3.32c-.07 2.68-.65 15.12-5.87 20.36zm-7.53-15.9v2.56h-2.56a.7.7 0 0 0-.7.7v3a.7.7 0 0 0 .7.7h2.56v2.56a.7.7 0 0 0 .7.7h3a.7.7 0 0 0 .7-.7v-2.59h2.56a.7.7 0 0 0 .7-.7V14a.7.7 0 0 0-.7-.7h-2.58v-2.52a.7.7 0 0 0-.7-.7h-3a.7.7 0 0 0-.68.7zM15.22 14v-2.52h1.56V14a.7.7 0 0 0 .7.7H20v1.6h-2.52a.7.7 0 0 0-.7.7v2.56h-1.56V17a.7.7 0 0 0-.7-.7H12v-1.55h2.56a.7.7 0 0 0 .66-.75z"/></symbol>

<symbol id="icon-quote" viewBox="0 0 32 32"><title>quote</title><path d="M30.69 7.63H31l-.67-2.9h-.2c-8 0-13.13 3-15.12 9a6.92 6.92 0 0 0-.94-.85c-2-1.5-4.65-1.33-6.11-1.07.9-1.38 3.45-4.14 9.46-4.14h.31l-.67-2.9h-.2C5.17 4.72 1 11.67 1 18.17c0 5.62 3.2 9.11 8.36 9.11a7.5 7.5 0 0 0 6.38-3.47 7.82 7.82 0 0 0 6.89 3.47 7.9 7.9 0 0 0 7.82-8.13 7.9 7.9 0 0 0-3.11-6.31 7.41 7.41 0 0 0-6-1.14c1.03-1.55 3.66-4.07 9.35-4.07zm-11.74 6.09c1.77-1 5.62-1.43 7.65.1a6.73 6.73 0 0 1 2.62 5.33 6.57 6.57 0 0 1-6.59 6.9 6.48 6.48 0 0 1-6.36-3.83 8.43 8.43 0 0 1-.54-1.72 7.33 7.33 0 0 1-.51 1.72 6.22 6.22 0 0 1-5.86 3.83c-4.47 0-7.13-2.95-7.13-7.89 0-2 .67-12 13.86-12.21l.11.48c-7.88.42-9.74 5.23-10.51 7.29 4.49-1.81 8.5-.28 9.86 3.4.61-5.34 4.05-11 13.81-11.17l.11.48c-7.89.42-9.94 5.26-10.52 7.29z"/></symbol>

<symbol id="icon-save" viewBox="0 0 32 32"><title>save</title><path d="M30.66 7.12l-4.23-5.64a.7.7 0 0 0-.56-.28H1.9a.7.7 0 0 0-.7.7v28.2a.7.7 0 0 0 .7.7h28.2a.7.7 0 0 0 .7-.7V7.54a.7.7 0 0 0-.14-.42zm-7.3-4.51v5.65H8.63V2.61zM8.63 29.39V15.28h14.74v14.11zm20.76 0h-4.61V14.58a.7.7 0 0 0-.7-.7H7.93a.7.7 0 0 0-.7.7v14.81H2.61V2.61h4.61V9a.7.7 0 0 0 .7.7h16.15a.7.7 0 0 0 .7-.7V2.61h.74l3.88 5.17z"/></symbol>

<symbol id="icon-search" viewBox="0 0 32 32"><title>search</title><path d="M30.67 29.39l-12-12a9.89 9.89 0 1 0-1 1l12 12a.7.7 0 1 0 1-1zM11 19.74a8.46 8.46 0 1 1 8.46-8.46A8.47 8.47 0 0 1 11 19.74z"/></symbol>

<symbol id="icon-share" viewBox="0 0 32 32"><title>share</title><path d="M25 20a5 5 0 0 0-4.2 2.3l-9.11-4.62a4.62 4.62 0 0 0 .07-3.13l9.11-4.73A5 5 0 1 0 20 7a5 5 0 0 0 .27 1.55l-9.09 4.72a5 5 0 1 0-.18 5.66l9.19 4.66A5 5 0 0 0 20 25a5 5 0 1 0 5-5zm0-16.6A3.6 3.6 0 1 1 21.4 7 3.6 3.6 0 0 1 25 3.4zM7 19.6a3.6 3.6 0 1 1 3.6-3.6A3.6 3.6 0 0 1 7 19.6zm18 9a3.6 3.6 0 1 1 3.6-3.6 3.6 3.6 0 0 1-3.6 3.6z"/></symbol>

<symbol id="icon-shared-services" viewBox="0 0 32 32"><title>shared services</title><path d="M3.41 19.8l4 3.91a11.55 11.55 0 0 0 3.84 2.55 11.71 11.71 0 0 0 8.75 0 11.54 11.54 0 0 0 3.84-2.55 12 12 0 0 0 1.63-2.05 10.32 10.32 0 0 0 1.1-2.3.86.86 0 0 0 0-.68.85.85 0 0 0-.51-.46.86.86 0 0 0-.68 0 .85.85 0 0 0-.46.51 9.21 9.21 0 0 1-.49 1.15 10.91 10.91 0 0 1-1.85 2.55 9.44 9.44 0 0 1-1.43 1.17 9.78 9.78 0 0 1-9.19 1 9.57 9.57 0 0 1-3.25-2.16l-3.8-3.66h4.76a.89.89 0 0 0 0-1.79H2.52a.86.86 0 0 0-.63.26.85.85 0 0 0-.26.63V25a.85.85 0 0 0 .26.63.89.89 0 0 0 1.26 0 .85.85 0 0 0 .26-.63zm18.17-7.58a.89.89 0 0 0 0 1.79h7.15a.89.89 0 0 0 .89-.89V6a.85.85 0 0 0-.26-.63.89.89 0 0 0-1.26 0 .85.85 0 0 0-.26.63v5.2l-4-3.89A11.59 11.59 0 0 0 20 4.74a11.72 11.72 0 0 0-8.75 0 11.54 11.54 0 0 0-3.84 2.55 12 12 0 0 0-1.63 2.05 10.34 10.34 0 0 0-1.1 2.3.89.89 0 0 0 1.22 1.09.86.86 0 0 0 .46-.51 9.58 9.58 0 0 1 1.05-2.12 8 8 0 0 1 1.28-1.56 9.54 9.54 0 0 1 3.24-2.15 10 10 0 0 1 7.45 0 9.79 9.79 0 0 1 3.19 2.14l3.76 3.67z"/></symbol>

<symbol id="icon-shopping-bag" viewBox="0 0 32 32"><title>shopping bag</title><path d="M29.16 9.33A1.33 1.33 0 0 0 27.83 8h-4.17V6.06c0-2.41-1.59-4.23-3.69-4.23s-3.69 1.82-3.69 4.23V8h-1.06V6.2c0-2.68-1.85-4.86-4.13-4.86S7 3.52 7 6.2V8H3.67a1.32 1.32 0 0 0-1.33 1.3l-1 18a1.31 1.31 0 0 0 1.25 1.32l17.58 2 9.16-1a1.34 1.34 0 0 0 1.33-1.38zm-1.32.05l1.39 18.52-3.58-1.81-.93-16.71zm-4.45 0l.94 16.79-3.53 2.54-.6-19.35zm1.67 17.9l2.48 1.26-5 .54zM17.6 6.06c0-1.68 1-2.9 2.37-2.9s2.37 1.22 2.37 2.9V8H17.6zm-9.31.14c0-2 1.26-3.54 2.81-3.54s2.8 1.59 2.8 3.54V8H8.29zM3.67 9.33H7v1.55A1.25 1.25 0 1 0 8.75 12a1.23 1.23 0 0 0-.46-.95V9.34h5.61v1.57a1.23 1.23 0 0 0-.65 1.09 1.25 1.25 0 0 0 2.5 0 1.23 1.23 0 0 0-.53-1V9.36h3.64l.62 19.89-16.82-1.88z"/></symbol>

<symbol id="icon-shopping-cart" viewBox="0 0 32 32"><title>shopping cart</title><path d="M30.65 8.28A.71.71 0 0 0 30.1 8H8l-.85-3.82a.7.7 0 0 0 0-.1V3.86H1.9A.7.7 0 1 0 1.9 5h4l4.22 19.59a2.4 2.4 0 1 0 4.27 2.07h8.95a2.4 2.4 0 1 0 0-1.41h-8.96a2.4 2.4 0 0 0-3-1.58l-.45-2.09h16.45a.71.71 0 0 0 .69-.55l2.72-12.16a.71.71 0 0 0-.14-.59zM25.63 25a1 1 0 1 1-1 1 1 1 0 0 1 1-1zm-12.55 1a1 1 0 1 1-1-1 1 1 0 0 1 1 1zm13.74-5.8H10.6L8.28 9.42h20.94z"/></symbol>

<symbol id="icon-small-business" viewBox="0 0 32 32"><title>small business</title><path d="M30.1 29.39h-.7V12.61a5.38 5.38 0 0 0 1.4-3.67.71.71 0 0 0 0-.14v-.12l-2.81-7a.71.71 0 0 0-.65-.44H4.72a.71.71 0 0 0-.65.44l-2.81 7v.12a.7.7 0 0 0 0 .14 5.38 5.38 0 0 0 1.41 3.63v16.82H1.9a.7.7 0 1 0 0 1.41h28.2a.7.7 0 0 0 0-1.41zM2.67 9.65h7.86a4 4 0 0 1-7.86 0zm22.73 3.29a4 4 0 0 1-3.93-3.29h7.86a4 4 0 0 1-3.93 3.29zm1.4-10.33l2.26 5.63h-7.78l-1.13-5.63zm-7 5.63h-7.64l1.13-5.63h5.42zm.09 1.41a4 4 0 0 1-7.86 0zM5.2 2.61h6.65l-1.13 5.63H2.94zm7.19 26.79v-9a3.61 3.61 0 1 1 7.23 0v9zm8.64 0v-9a5 5 0 1 0-10 0v9H4V13.69a5.39 5.39 0 0 0 7.3-2.09 5.39 5.39 0 0 0 9.4 0 5.4 5.4 0 0 0 7.3 2.09v15.7z"/></symbol>

<symbol id="icon-smart-phone" viewBox="0 0 32 32"><title>smart phone</title><path d="M17.59 27A1.59 1.59 0 1 1 16 25.36 1.59 1.59 0 0 1 17.59 27zm6.47-25v28.1a.7.7 0 0 1-.7.7H8.64a.7.7 0 0 1-.7-.7V1.9a.7.7 0 0 1 .7-.7h14.72a.7.7 0 0 1 .7.7zM9.35 23.09h13.3V7.21H9.35zm0-20.48V5.8h13.3V2.61zm13.3 26.78V24.5H9.35v4.89zM14.18 4.93h3.64a.7.7 0 0 0 0-1.41h-3.64a.7.7 0 0 0 0 1.41z"/></symbol>

<symbol id="icon-sports" viewBox="0 0 32 32"><title>sports</title><path d="M30.74 14.23l-1.81-1.85c-1.34-1.38-2.87-2.91-3.62-3.74a4.3 4.3 0 0 0-3.1-1.78h-1.14l-.56-2-.1-.11c-.19-.22-1.09-.95-4.6-.95-2.68 0-4.16.4-4.42 1.22l-.47 1.84H10a5.1 5.1 0 0 0-3.2 1.66c-1.4 1.42-4.25 4.35-5.63 5.79a1 1 0 0 0 0 1.48l4 4.14a1 1 0 0 0 .78.36 1 1 0 0 0 .75-.38l1-1.1c-.27 2.62-.7 7.19-.85 9.4 0 .89.34 1.24 1.21 1.24h16c.87 0 1.21-.34 1.21-1.29-.25-2.26-.65-7-.86-9.58l1 1a1.22 1.22 0 0 0 .84.44 1 1 0 0 0 .77-.33l3.64-3.8a1 1 0 0 0 .08-1.66zM16 10.13l.18.7L16 11l-.17-.17zm-.64-2.52h1.29L16 8.68zm-2.73-2.09a7.51 7.51 0 0 1 3.18-.4 9 9 0 0 1 3.52.46l.46 1.63-2.52 2.52-.1-.41 1.82-3H13l1.82 3-.1.41L12.2 7.2zM7.74 9.45A3.71 3.71 0 0 1 10 8.18h1.33c1 1 3.52 3.55 3.89 3.88l.26.26v-.07a1 1 0 0 0 1.06 0v.08l.28-.28c.52-.45 2.72-2.69 3.87-3.87h1.51c.75 0 1.35.5 2.12 1.35s2.3 2.41 3.66 3.78l.18.18L24.7 17l-1.84-1.75L23 17c0 .06.37 4.63.7 8.21H8.43c.31-3.6.74-8.15.74-8.21l.18-2L8 16.47l-.64.7-3.5-3.74zM5.89 18.8l-3.6-3.75.65-.67 3.55 3.76zm2.3 9.33c0-.46.08-1 .13-1.62h15.5c.06.61.11 1.17.16 1.62zm18.16-9.58l-.68-.64 3.43-3.48.61.62zm-10 2.81h-1V23h3.77v-1.64h-1v-1h1.19v-1.55h-1.23v-5.1h-2.21L12 18.83v1.48h4.35zm-2.55-2.53l2.55-3.46v3.46z"/></symbol>

<symbol id="icon-star" viewBox="0 0 32 32"><title>star</title><path d="M7.29 30.11a.7.7 0 0 1-.67-.92l3.17-9.76-8.3-6a.7.7 0 0 1 .41-1.28h10.26l3.17-9.76a.71.71 0 0 1 1.34 0l3.17 9.76H30.1a.7.7 0 0 1 .41 1.28l-8.3 6 3.17 9.76a.71.71 0 0 1-1.08.81L16 24l-8.3 6a.7.7 0 0 1-.41.11zM16 22.37a.7.7 0 0 1 .41.13l7 5.06-2.66-8.18a.71.71 0 0 1 .25-.78l7-5.06h-8.6a.71.71 0 0 1-.67-.49L16 4.87l-2.66 8.18a.71.71 0 0 1-.67.49h-8.6l7 5.06a.71.71 0 0 1 .26.79l-2.7 8.17 7-5.06a.7.7 0 0 1 .37-.13z"/></symbol>

<symbol id="icon-sun" viewBox="0 0 32 32"><title>sun</title><path d="M16 23.75A7.75 7.75 0 1 1 23.75 16 7.76 7.76 0 0 1 16 23.75zm0-14.1A6.34 6.34 0 1 0 22.34 16 6.35 6.35 0 0 0 16 9.66zm.7-4.14V2a.7.7 0 1 0-1.4 0v3.52a.7.7 0 1 0 1.41 0zm0 24.48v-3.51a.7.7 0 1 0-1.41 0V30a.7.7 0 1 0 1.41 0zM6.22 16a.7.7 0 0 0-.7-.7H2a.7.7 0 0 0 0 1.4h3.52a.7.7 0 0 0 .7-.7zm24.49 0a.7.7 0 0 0-.7-.7h-3.53a.7.7 0 0 0 0 1.41H30a.7.7 0 0 0 .71-.71zM9.09 9.09a.7.7 0 0 0 0-1L6.6 5.6a.7.7 0 0 0-1 1l2.49 2.49a.7.7 0 0 0 1 0zM26.4 26.4a.7.7 0 0 0 0-1l-2.49-2.49a.7.7 0 1 0-1 1l2.49 2.49a.7.7 0 0 0 1 0zm-19.8 0l2.49-2.49a.7.7 0 1 0-1-1L5.6 25.4a.7.7 0 1 0 1 1zM23.91 9.09L26.4 6.6a.7.7 0 0 0-1-1l-2.49 2.49a.7.7 0 1 0 1 1z"/></symbol>

<symbol id="icon-tag" viewBox="0 0 32 32"><title>tag</title><path d="M22.8 5.95a2.3 2.3 0 0 0 3.25 3.25 2.3 2.3 0 0 0-3.25-3.25zm2.26 2.26a.89.89 0 1 1 0-1.26.89.89 0 0 1-.01 1.26zM30.6 5.5l-4.1-4.1a.7.7 0 0 0-.5-.2h-8.57a.7.7 0 0 0-.5.21L1.4 17.32a.7.7 0 0 0 0 1L13.69 30.6a.7.7 0 0 0 1 0l15.9-15.53a.7.7 0 0 0 .21-.5V6a.7.7 0 0 0-.2-.5zm-1.2 8.77L14.2 29.11 2.89 17.8 17.73 2.61h8l3.68 3.68z"/></symbol>

<symbol id="icon-target" viewBox="0 0 32 32"><title>target</title><path d="M30.8 3.76a.7.7 0 0 1-.7.7h-1.86a.7.7 0 0 1-.7-.7V1.9a.7.7 0 1 1 1.41 0v1.16h1.15a.7.7 0 0 1 .7.7zm-4.43 2.57h1.86a.7.7 0 0 0 0-1.41h-1.15V3.76a.7.7 0 1 0-1.41 0v1.87a.7.7 0 0 0 .7.7zm-.53 1.86a13.9 13.9 0 1 1-2-2v-.56a.7.7 0 1 1 1.41 0v1.15h1.16a.7.7 0 0 1 0 1.41zm1.7 8.74a12.41 12.41 0 0 0-3.17-8.3l-1.8 1.8a9.94 9.94 0 1 1-1-1l1.8-1.8a12.46 12.46 0 1 0 4.17 9.29zm-8.78-2.68l-3.45 3.45a.7.7 0 0 1-1-1l3.45-3.45a4.58 4.58 0 1 0 1 1zm1.82-3.81a8.53 8.53 0 1 0 1 1l-1.81 1.81a6 6 0 1 1-1-1z"/></symbol>

<symbol id="icon-temperature" viewBox="0 0 32 32"><title>temperature</title><path d="M20.93 16.9v-15a.7.7 0 0 0-.7-.7h-8.46a.7.7 0 0 0-.7.7v15a7.75 7.75 0 1 0 9.87 0zM16 29.39a6.46 6.46 0 0 1-3.8-11.6.71.71 0 0 0 .28-.56V2.61h7v3.28H16a.7.7 0 0 0 0 1.41h3.52v1.85H16a.7.7 0 0 0 0 1.41h3.52v1.85H16a.7.7 0 0 0 0 1.41h3.52v3.42a.7.7 0 0 0 .28.56A6.46 6.46 0 0 1 16 29.39z"/></symbol>

<symbol id="icon-ticket" viewBox="0 0 32 32"><title>ticket</title><path d="M21.91 15L15 21.91 10.08 17l6.9-6.9 4.93 4.9m1.15-.67l-5.4-5.4a1 1 0 0 0-.64-.3.7.7 0 0 0-.59.19l-7.61 7.61a.7.7 0 0 0-.2.59 1 1 0 0 0 .32.64l5.4 5.4a1 1 0 0 0 .64.3.7.7 0 0 0 .59-.19l7.61-7.61a.7.7 0 0 0 .2-.59 1 1 0 0 0-.32-.64zm6.17-3.28l-2.45-2.43-.45.45a2.41 2.41 0 0 1-4.12-1.71 2.3 2.3 0 0 1 .7-1.71l.45-.45-2.43-2.43a2.68 2.68 0 0 0-3.77 0L2.77 17.14a2.69 2.69 0 0 0 0 3.77l2.43 2.45.45-.45a2.3 2.3 0 0 1 1.71-.7 2.42 2.42 0 0 1 1.71 4.12l-.45.45 2.45 2.45a2.69 2.69 0 0 0 3.77 0l14.39-14.4a2.69 2.69 0 0 0 0-3.77zM22 10a3.71 3.71 0 0 0 4.73.41l1.6 1.59a1.41 1.41 0 0 1 0 2L13.94 28.33a1.41 1.41 0 0 1-2 0l-1.59-1.59a3.68 3.68 0 0 0-3-5.8 3.56 3.56 0 0 0-2.12.66L3.67 20a1.42 1.42 0 0 1 0-2L18.06 3.67a1.41 1.41 0 0 1 2 0l1.54 1.57a3.56 3.56 0 0 0-.66 2.12A3.56 3.56 0 0 0 22 10z"/></symbol>

<symbol id="icon-training" viewBox="0 0 32 32"><title>training</title><path d="M30.47 21.12h-7v-1.33h5.71V5.12H8.47v5.15H7.15V3.79h23.32zm-14.2-1.32H15v1.32h1.25zM21 22.27a2.5 2.5 0 0 0 .87-3.19 2.1 2.1 0 0 0-3.05-.84 2.46 2.46 0 0 0-1 1.43 2.3 2.3 0 0 0 1.5 2.87 2.08 2.08 0 0 0 .55.08 2.16 2.16 0 0 0 1.13-.35zm-.81-3a.81.81 0 0 1 .5.43 1.13 1.13 0 0 1 .07.81 1.14 1.14 0 0 1-.47.66.81.81 0 0 1-.65.11A1 1 0 0 1 19.1 20a1.14 1.14 0 0 1 .47-.66.85.85 0 0 1 .46-.14zm2.35-6.33l-1.28-.34-1.53 5.86 1.28.34zm-9.73 13L17 29.18 21 24l-3.52-2.63-1.28 1.73-3-2.87a7.41 7.41 0 0 0-2.89-1.54H10l-.19.16A3 3 0 0 1 6 19l-.18-.13h-.19c-4.11 0-4.11 5.41-4.11 11.13v.66h11.33zM5.44 20.2a4.39 4.39 0 0 0 5-.12 13.06 13.06 0 0 1 1.89 1.17l4 3.81 1.42-1.81 1.39 1-2.41 3-5.23-4.2v6.22H2.85c.02-5.33.28-8.88 2.59-9.07zM12 16.77v-1.5a4.16 4.16 0 0 0-8.33 0v1.5a4.16 4.16 0 0 0 8.33 0zm-1.33-1.5v1.5a2.84 2.84 0 1 1-5.67 0v-1.5a2.84 2.84 0 1 1 5.67 0z"/></symbol>

<symbol id="icon-transportation" viewBox="0 0 32 32"><title>transportation</title><path d="M28.44 30h-1.55a2.22 2.22 0 0 1-2.22-2.22v-.12H7.33v.12A2.22 2.22 0 0 1 5.11 30H3.56a2.22 2.22 0 0 1-2.22-2.22v-11.9l3.31-8.56a2.9 2.9 0 0 1 2.8-2h17.11a2.91 2.91 0 0 1 2.8 2l3.3 8.78v11.68A2.22 2.22 0 0 1 28.44 30zM6 26.34h20v1.44a.9.9 0 0 0 .89.89h1.56a.9.9 0 0 0 .89-.89V16.23l-3.23-8.46a1.6 1.6 0 0 0-1.55-1.1H7.44a1.6 1.6 0 0 0-1.55 1.1l-3.23 8.46v11.55a.9.9 0 0 0 .89.89h1.56a.9.9 0 0 0 .89-.89zM24.56 23a3 3 0 1 1 3-3 3 3 0 0 1-3 3zm0-4.67A1.67 1.67 0 1 0 26.23 20a1.63 1.63 0 0 0-1.67-1.67zM7.44 23a3 3 0 1 1 3-3 3 3 0 0 1-3 3zm0-4.67A1.67 1.67 0 1 0 9.12 20a1.63 1.63 0 0 0-1.68-1.67zm20.4-3.11H4.16L7 7.67h18zM6.07 13.89h19.86L24.1 9H7.9z"/></symbol>

<symbol id="icon-trash" viewBox="0 0 32 32"><title>trash</title><path d="M20.71 25.2V10.32a.68.68 0 1 1 1.36 0V25.2a.68.68 0 0 1-1.36 0zM31 6.72a.68.68 0 0 1-.68.68h-2.86v18.73a4.38 4.38 0 0 1-4.37 4.37H8.92a4.38 4.38 0 0 1-4.37-4.37V7.4H1.68a.68.68 0 1 1 0-1.4H10V5A4.56 4.56 0 0 1 14.51.5h3a4.56 4.56 0 0 1 4.6 4.5v1h8.21a.68.68 0 0 1 .68.72zM11.3 5v1h9.47V5a3.21 3.21 0 0 0-3.21-3.21h-3A3.21 3.21 0 0 0 11.3 5zM5.91 7.4v18.73a3 3 0 0 0 3 3h14.17a3 3 0 0 0 3-3V7.4zm4.7 18.48a.68.68 0 0 0 .68-.68V10.32a.68.68 0 1 0-1.36 0V25.2a.68.68 0 0 0 .68.68zm5.39 0a.68.68 0 0 0 .68-.68V10.32a.68.68 0 1 0-1.36 0V25.2a.68.68 0 0 0 .68.68z"/></symbol>

<symbol id="icon-trending-up-chart" viewBox="0 0 32 32"><title>trending-up chart</title><path d="M30.1 1.3H1.9a.7.7 0 0 0 0 1.41H3v20.45a.7.7 0 0 0 .7.7h11.6v5.43h-2.72a.7.7 0 1 0 0 1.41h6.84a.7.7 0 1 0 0-1.41H16.7v-5.43h11.64a.7.7 0 0 0 .7-.7V2.71h1a.7.7 0 0 0 0-1.41zm-2.46 21.15H4.36V2.71h23.28zm-19.86-4a.7.7 0 0 1 0-1l5.73-5.73a.7.7 0 0 1 1 0l2.25 2.25 4-4h-.19a.7.7 0 0 1 0-1.41h1.86a.7.7 0 0 1 .7.7v1.86a.7.7 0 0 1-1.41 0v-.13l-4.49 4.49a.7.7 0 0 1-1 0L14 13.18l-5.22 5.23a.7.7 0 0 1-1 0z"/></symbol>

<symbol id="icon-trending-up" viewBox="0 0 32 32"><title>trending up</title><path d="M30.1 26.57H5.43v-5.1l8.63-8.63 4.55 4.55a.7.7 0 0 0 1 0l4.49-4.49v.1a.7.7 0 1 0 1.41 0v-1.83a.7.7 0 0 0-.7-.7h-1.87a.7.7 0 0 0 0 1.41h.19l-4 4-4.55-4.55a.73.73 0 0 0-1 0l-8.15 8.14V1.9A.7.7 0 1 0 4 1.9V21a.7.7 0 0 0 0 .34v5.2H1.9a.7.7 0 0 0 0 1.46H4v2.1a.7.7 0 1 0 1.41 0V28H30.1a.7.7 0 0 0 0-1.41z"/></symbol>

<symbol id="icon-trophy" viewBox="0 0 32 32"><title>trophy</title><path d="M30.54 6.64a3.29 3.29 0 0 0-3.09-2.06h-1.8V2.9a.7.7 0 0 0-.7-.7H7.08a.7.7 0 0 0-.7.7v1.67H4.54a3.34 3.34 0 0 0-2.36 5.7l5.08 5.08a.7.7 0 0 0 .31.18 18.55 18.55 0 0 0 6 4.92v4.37H11a.7.7 0 0 0-.7.7v3.58a.7.7 0 0 0 .7.7h10a.7.7 0 0 0 .7-.7v-3.57a.7.7 0 0 0-.7-.7h-2.49v-4.37a18.53 18.53 0 0 0 6-4.93.7.7 0 0 0 .27-.17l5.08-5.08a3.29 3.29 0 0 0 .68-3.64zm-27.78.54A1.9 1.9 0 0 1 4.54 6h1.83v6.49l-3.2-3.2a1.91 1.91 0 0 1-.41-2.11zm14.71 12.24a.7.7 0 0 0-.37.62v5.49a.7.7 0 0 0 .7.7h2.51v2.17h-8.59v-2.17h2.51a.7.7 0 0 0 .7-.7V20a.7.7 0 0 0-.37-.62c-1.85-1-6.18-3.65-6.78-6.76V3.6h16.46v1.49a.63.63 0 0 0 0 .37v7.2c-.59 3.11-4.93 5.76-6.77 6.76zM28.82 9.28l-3.17 3.17V6h1.8a1.93 1.93 0 0 1 1.37 3.3z"/></symbol>

<symbol id="icon-twitter" viewBox="0 0 32 32"><title>twitter</title><path d="M26.55 9.46a9.07 9.07 0 0 1-2.17 2.24v.56a12.29 12.29 0 0 1-.51 3.48 12.56 12.56 0 0 1-1.55 3.33 13.09 13.09 0 0 1-2.47 2.82 11 11 0 0 1-3.46 2 12.65 12.65 0 0 1-4.33.73 12 12 0 0 1-6.64-1.94 9.39 9.39 0 0 0 1 .05 8.47 8.47 0 0 0 5.37-1.85 4.34 4.34 0 0 1-4-3 5.44 5.44 0 0 0 .82.07 4.5 4.5 0 0 0 1.14-.15 4.26 4.26 0 0 1-2.48-1.49 4.18 4.18 0 0 1-1-2.75v-.05a4.29 4.29 0 0 0 2 .55 4.33 4.33 0 0 1-1.41-1.54 4.34 4.34 0 0 1 .07-4.25 12.25 12.25 0 0 0 3.94 3.19 12.07 12.07 0 0 0 5 1.33 4.82 4.82 0 0 1-.11-1 4.32 4.32 0 0 1 4.33-4.33 4.17 4.17 0 0 1 3.16 1.37 8.49 8.49 0 0 0 2.75-1 4.2 4.2 0 0 1-1.9 2.38 8.62 8.62 0 0 0 2.45-.75z"/></symbol>

<symbol id="icon-umbrella" viewBox="0 0 32 32"><title>umbrella</title><path d="M24 24.6a.7.7 0 0 0-.7.7 3.3 3.3 0 0 1-6.6 0v-9.37h14.18c0-7.69-6.72-13.93-15-13.93s-15 6.24-15 13.93H15.3v9.37a4.7 4.7 0 0 0 9.4 0 .7.7 0 0 0-.7-.7zM15.88 3.4c7 0 12.76 4.88 13.52 11.13h-27C3.12 8.28 8.89 3.4 15.88 3.4z"/></symbol>

<symbol id="icon-undo" viewBox="0 0 32 32"><title>undo</title><path d="M21 9H3.6L8 4.54a.7.7 0 1 0-1-1L1.4 9.18l-.09.11v.25a.71.71 0 0 0 0 .28v.25l.09.11L7 15.82a.7.7 0 1 0 1-1l-4.4-4.44H21a8.44 8.44 0 0 1 0 16.87H9a.7.7 0 1 0 0 1.41h12A9.85 9.85 0 1 0 21 9z"/></symbol>

<symbol id="icon-unlocked" viewBox="0 0 32 32"><title>unlocked</title><path d="M14.19 24.76a1.81 1.81 0 1 0 3.61 0v-2.61a2.47 2.47 0 1 0-4.27-1.78 2.48 2.48 0 0 0 .66 1.78zM16 19.41a1.06 1.06 0 0 1 .66 1.88.71.71 0 0 0-.26.55v2.92a.4.4 0 1 1-.79 0v-2.92a.7.7 0 0 0-.26-.55 1 1 0 0 1-.4-.87A1.07 1.07 0 0 1 16 19.41zm9.9-5.35H9.68l-1.2-2.79a6.34 6.34 0 1 1 11.65-5L21.77 10a.71.71 0 1 0 1.29-.56l-1.64-3.8a7.75 7.75 0 0 0-14.23 6.19l.93 2.23h-2a.7.7 0 0 0-.7.7V30.3a.7.7 0 0 0 .7.7h19.75a.7.7 0 0 0 .7-.7V14.76a.7.7 0 0 0-.7-.7zm-.7 15.53H6.84V15.47h18.32z"/></symbol>

<symbol id="icon-video" viewBox="0 0 32 32"><title>video</title><path d="M22.33 12.48V11a3.85 3.85 0 0 0-3.85-3.8H4.85a3.72 3.72 0 0 0-2.72 1.12A3.72 3.72 0 0 0 1 11v10a3.72 3.72 0 0 0 1.13 2.72 3.72 3.72 0 0 0 2.72 1.08h13.63a3.85 3.85 0 0 0 3.85-3.8v-1.48l8.49 4 .19.1V8.35zm7.3-1.82v10.68L21 17.21V21a2.47 2.47 0 0 1-2.47 2.47H4.85a2.33 2.33 0 0 1-1.75-.72A2.33 2.33 0 0 1 2.37 21V11a2.33 2.33 0 0 1 .73-1.71 2.33 2.33 0 0 1 1.75-.72h13.63A2.47 2.47 0 0 1 21 11v4z"/></symbol>

<symbol id="icon-visible" viewBox="0 0 32 32"><title>visible</title><path d="M17.84 14.16a2.6 2.6 0 1 1-3.68 3.68 2.6 2.6 0 1 1 3.68-3.68zM31 16l-.21.44c-.08.17-.26.5-.55 1s-.6 1-.92 1.51-.76 1.09-1.29 1.75a24.41 24.41 0 0 1-1.66 1.88 18.44 18.44 0 0 1-2 1.76 15.79 15.79 0 0 1-2.41 1.51 14 14 0 0 1-2.78 1 12.63 12.63 0 0 1-3.14.4 13 13 0 0 1-4-.62A13.24 13.24 0 0 1 8.64 25a23 23 0 0 1-2.73-2.17 17 17 0 0 1-2.15-2.38c-.58-.79-1.08-1.52-1.5-2.17a16.14 16.14 0 0 1-.94-1.61L1 16l.21-.44c.08-.17.26-.51.55-1s.6-1 .92-1.51S3.45 12 4 11.31a23.82 23.82 0 0 1 1.63-1.88 18.72 18.72 0 0 1 2-1.76 16 16 0 0 1 2.41-1.52 13.57 13.57 0 0 1 2.78-1 12.8 12.8 0 0 1 3-.39H16a13 13 0 0 1 4 .62A13.14 13.14 0 0 1 23.36 7a22.84 22.84 0 0 1 2.73 2.18 17.21 17.21 0 0 1 2.15 2.4c.58.79 1.08 1.53 1.5 2.18a17.46 17.46 0 0 1 .94 1.6zm-1.55-.09a16.18 16.18 0 0 0-.85-1.45c-.41-.63-.9-1.34-1.46-2.11a15.85 15.85 0 0 0-2-2.21 21.3 21.3 0 0 0-2.56-2.05 11.78 11.78 0 0 0-3-1.44 11.59 11.59 0 0 0-3.32-.55H16a11.44 11.44 0 0 0-2.81.35 12.24 12.24 0 0 0-2.5.91 14.57 14.57 0 0 0-2.2 1.39 17.18 17.18 0 0 0-1.88 1.63A22.17 22.17 0 0 0 5 12.16c-.51.64-.92 1.2-1.22 1.66s-.6.95-.87 1.43-.37.67-.44.79v.08a14.7 14.7 0 0 0 .85 1.46c.41.63.9 1.33 1.46 2.1a15.59 15.59 0 0 0 2 2.19 21.58 21.58 0 0 0 2.57 2 11.9 11.9 0 0 0 3 1.44 11.59 11.59 0 0 0 6.36.2 12.53 12.53 0 0 0 2.51-.91 14.46 14.46 0 0 0 2.2-1.38 17.17 17.17 0 0 0 1.88-1.63 22.84 22.84 0 0 0 1.7-1.72c.51-.63.92-1.19 1.22-1.65s.6-1 .88-1.43.37-.66.44-.79zm-9.86-3.5a5.08 5.08 0 0 1 0 7.18 5.08 5.08 0 0 1-7.18 0 5.08 5.08 0 0 1 0-7.18 5.08 5.08 0 0 1 7.18 0zm-1 6.22a3.71 3.71 0 0 0 0-5.25 3.71 3.71 0 0 0-5.25 0 3.71 3.71 0 0 0 0 5.25 3.71 3.71 0 0 0 5.25 0z"/></symbol>

<symbol id="icon-volunteer" viewBox="0 0 32 32"><title>volunteer</title><path d="M25.85 6.82a2.35 2.35 0 0 0-3.17-.14V5.62A2.27 2.27 0 0 0 22 4a2.35 2.35 0 0 0-3.17-.14v-.17a2.27 2.27 0 0 0-.7-1.69 2.35 2.35 0 0 0-3.32 0 2.28 2.28 0 0 0-.64 1.16 2.35 2.35 0 0 0-3.22.09 2.28 2.28 0 0 0-.69 1.66v10.55L9.12 14a2.49 2.49 0 0 0-2.07-1A2.59 2.59 0 0 0 5 17.08l4.69 6.28.07.1a9.06 9.06 0 0 0 2.8 2.62l-.4 4.59h11.19l-.41-4.76c3.58-2.37 3.59-7 3.59-8.9V8.48a2.28 2.28 0 0 0-.68-1.66zm-3.94 22.52h-8.32l.23-2.64h.11c.23.09.46.16.68.23h.17l.65.15h.15c.27 0 .54.08.8.11h1.03a13.67 13.67 0 0 0 1.4-.08l.52-.07.69-.12.63-.15.31-.1c.24-.08.49-.14.71-.23zM25.22 17c0 3-.46 6.27-3.2 7.93l-.15.09a8.91 8.91 0 0 1-4.43 1 8.32 8.32 0 0 1-3.87-.89 7.7 7.7 0 0 1-2.73-2.43L6 16.28a1.21 1.21 0 0 1-.26-.76 1.27 1.27 0 0 1 1.27-1.27 1.17 1.17 0 0 1 1 .5l3.52 4.68V4.94a1 1 0 0 1 .3-.72 1 1 0 0 1 1.45 0 1 1 0 0 1 .3.72v9.31h1.81V3.69a1 1 0 0 1 .3-.72 1 1 0 0 1 1.45 0 1 1 0 0 1 .3.72v10.56h1.86V5.62a1 1 0 0 1 .3-.72 1 1 0 0 1 1.45 0 1 1 0 0 1 .3.72v8.63h1.81V8.48a1 1 0 0 1 .3-.72 1 1 0 0 1 1.45 0 1 1 0 0 1 .3.72zm-2.9-.64a2.5 2.5 0 0 1 .68 1.87 3.56 3.56 0 0 1-1.25 2.45l-3.39 3.27a.34.34 0 0 1-.48 0l-3.4-3.28-.15-.14-.3-.36a4.82 4.82 0 0 1-.37-.53 3.31 3.31 0 0 1-.29-.66 2.39 2.39 0 0 1-.13-.75 2.5 2.5 0 0 1 .69-1.87 2.62 2.62 0 0 1 1.91-.68 2.17 2.17 0 0 1 .69.12 2.78 2.78 0 0 1 .65.32q.3.2.52.37a5 5 0 0 1 .41.37 5.06 5.06 0 0 1 .41-.37q.22-.17.52-.37a2.78 2.78 0 0 1 .65-.32 2.17 2.17 0 0 1 .69-.12 2.62 2.62 0 0 1 1.94.67z"/></symbol>

<symbol id="icon-youtube" viewBox="0 0 32 32"><title>youtube</title><path d="M25.92 21.09a23.17 23.17 0 0 1-.35 4.69 2.54 2.54 0 0 1-.78 1.33 2.35 2.35 0 0 1-1.37.62A71.61 71.61 0 0 1 16 28a71.61 71.61 0 0 1-7.43-.28 2.38 2.38 0 0 1-1.37-.62 2.45 2.45 0 0 1-.77-1.33 22.69 22.69 0 0 1-.35-4.69 23.17 23.17 0 0 1 .35-4.69 2.54 2.54 0 0 1 .78-1.33 2.43 2.43 0 0 1 1.38-.63q2.41-.25 7.41-.25t7.43.27a2.51 2.51 0 0 1 2.14 2 22.7 22.7 0 0 1 .35 4.64zm-15.61-3.34h1.43V16.5H7.56v1.26H9v7.62h1.34zM12.56 4h1.37L12.3 9.34V13H11V9.34a22.64 22.64 0 0 0-.82-2.84q-.53-1.37-.9-2.5h1.42l1 3.52zm1.61 21.38h1.19v-6.62h-1.19v5.06q-.4.56-.76.56t-.28-.28a3.71 3.71 0 0 1 0-.47v-4.87h-1.21V24a3.31 3.31 0 0 0 .08 1 .72.72 0 0 0 .78.5 2 2 0 0 0 1.37-.82zm3.34-16.92v2.34a2.64 2.64 0 0 1-.37 1.58 1.8 1.8 0 0 1-2.83 0 2.67 2.67 0 0 1-.37-1.58V8.46a2.61 2.61 0 0 1 .38-1.57 1.8 1.8 0 0 1 2.83 0 2.62 2.62 0 0 1 .36 1.57zM16.29 11V8.22q0-.92-.58-.92t-.58.92V11q0 .94.58.94t.58-.94zm3.62 12.36v-2.61a4.78 4.78 0 0 0-.12-1.33.93.93 0 0 0-1-.75 1.61 1.61 0 0 0-1.25.72V16.5H16.4v8.88h1.19v-.64a1.66 1.66 0 0 0 1.25.74.93.93 0 0 0 1-.74 4.94 4.94 0 0 0 .07-1.35zm-1.19-2.73v2.83q0 .9-.52.9a.86.86 0 0 1-.6-.29v-4a.86.86 0 0 1 .6-.29q.52-.02.52.88zM22 6.29V13h-1.22v-.74a1.93 1.93 0 0 1-1.38.83.74.74 0 0 1-.79-.5 3.43 3.43 0 0 1-.11-1v-5.3h1.22v4.92a3.5 3.5 0 0 0 0 .47c0 .2.12.29.28.29s.5-.19.76-.58v-5.1zm2.44 17v-.17h-1.22a6.66 6.66 0 0 1 0 .82.51.51 0 0 1-.54.48q-.62 0-.62-.92v-1.21h2.4v-1.37a2.66 2.66 0 0 0-.36-1.55 1.83 1.83 0 0 0-2.85 0 2.59 2.59 0 0 0-.37 1.55v2.32a2.51 2.51 0 0 0 .39 1.55 1.72 1.72 0 0 0 1.45.68 1.63 1.63 0 0 0 1.45-.71 1.62 1.62 0 0 0 .28-.72 5.92 5.92 0 0 0-.01-.78zm-1.19-2.58v.62H22v-.62q0-.91.6-.91t.65.87z"/></symbol>

<symbol id="icon-zoom-in" viewBox="0 0 32 32"><title>zoom in</title><path d="M30.67 29.39l-12-12a9.89 9.89 0 1 0-1 1l12 12a.7.7 0 1 0 1-1zM11 19.74a8.46 8.46 0 1 1 8.46-8.46A8.47 8.47 0 0 1 11 19.74zm4.69-8.46a.7.7 0 0 1-.7.7H11.7v3.28a.7.7 0 1 1-1.41 0V12H7a.7.7 0 0 1 0-1.41h3.28v-3.3a.7.7 0 1 1 1.41 0v3.28H15a.7.7 0 0 1 .69.71z"/></symbol>

<symbol id="icon-zoom-out" viewBox="0 0 32 32"><title>zoom out</title><path d="M30.67 29.39l-12-12a9.89 9.89 0 1 0-1 1l12 12a.7.7 0 1 0 1-1zM11 19.74a8.46 8.46 0 1 1 8.46-8.46A8.47 8.47 0 0 1 11 19.74zm4.83-8.46a.7.7 0 0 1-.7.7h-8a.7.7 0 0 1 0-1.41h8a.7.7 0 0 1 .7.71z"/></symbol></svg>